<svg width="50" height="42" viewBox="0 0 50 42" fill="none" xmlns="http://www.w3.org/2000/svg">
<path d="M26.0503 12.0392C28.598 10.52 29.7544 8.14403 31.473 6.22216C32.7759 4.77221 33.9616 3.19718 35.424 1.89966C36.5248 0.92409 38.128 0.205148 39.5916 1.13989C41.145 2.13674 39.9253 3.42948 39.4671 4.52821C38.296 7.31185 36.9766 10.0478 35.8041 12.8376C34.8823 15.0277 35.3258 15.7669 37.9007 15.7409C41.18 15.7152 44.3216 16.2468 47.4159 17.1157C48.5533 17.4363 49.8154 17.9412 49.8522 19.2054C49.891 20.5533 48.4663 20.9665 47.3964 21.2746C44.4951 22.1167 41.5696 23.0055 38.434 22.5713C37.2823 22.4082 36.068 22.0921 34.9768 23.4287C35.8627 25.6574 37.3267 27.7403 38.8998 29.7671C40.1205 31.3288 40.9436 33.0323 41.1842 34.9641C41.5003 37.5196 40.3364 38.4062 37.6181 37.6478C35.2706 36.9926 33.3785 35.6551 31.7832 33.9767C29.9996 32.0891 28.3093 30.1232 26.3618 27.9476C24.3178 28.9412 23.7207 30.9754 22.8336 32.7296C21.8176 34.7219 21.0979 36.8417 20.0952 38.8366C19.3035 40.4102 18.3967 42.1285 15.9837 41.5505C13.4461 40.9423 13.8405 39.0745 14.1054 37.323C14.412 35.2908 14.7782 33.2701 15.0238 31.2326C15.2289 29.5017 14.3346 28.9262 12.5616 29.4459C9.80784 30.2457 7.06709 31.0801 4.28996 31.7986C3.16048 32.0952 1.83385 32.3155 1.06013 31.1667C0.176009 29.8619 1.63513 29.2629 2.21273 28.3731C4.95056 24.1644 9.98573 22.3908 13.6077 19.0827C15.9392 16.9512 17.0907 15.1259 16.149 12.0912C15.4956 9.99694 15.4257 7.73227 15.2585 5.53233C15.1617 4.3208 14.9763 2.85498 16.7923 2.45263C18.3678 2.10681 19.386 2.99467 20.096 4.15056C21.0986 5.79227 21.9814 7.50721 22.96 9.16356C23.6172 10.2773 24.4384 11.2749 26.0462 12.0577L26.0503 12.0392Z" fill="#51FFF6"/>
</svg>
