<svg width="1086" height="126" viewBox="0 0 1086 126" fill="none" xmlns="http://www.w3.org/2000/svg">
<g clip-path="url(#clip0_131_40121)">
<path d="M-5.63719e-05 26.8487L5.71695 3.93291L9.68196 3.52765L19.9449 24.804L15.86 25.2276L13.5456 20.3L5.28356 21.1474L4.02029 26.4434L-0.00927734 26.8579L-5.63719e-05 26.8487ZM6.09501 17.7579L12.0886 17.1408L8.81519 10.2698C8.57545 9.71712 8.2896 9.07239 8.18817 8.62107C8.14206 9.05396 8.03141 9.73554 7.87465 10.3619L6.09501 17.7579Z" fill="#00425B"/>
<path d="M23.0249 24.6197L22.0751 12.7382L19.1982 12.9684L18.9492 9.87369L21.8262 9.64343L21.4573 4.97369L25.1549 4.67896L25.5238 9.34869L28.4376 9.11843L28.6866 12.2132L25.7727 12.4434L26.7225 24.325L23.0249 24.6197Z" fill="#00425B"/>
<path d="M33.7119 23.8184L32.9558 11.9277L30.0696 12.1119L29.876 9.01713L32.7621 8.83292L32.4671 4.16319L36.1739 3.93292L36.469 8.60266L39.3828 8.41845L39.5764 11.5132L36.6626 11.6974L37.4187 23.5882L33.7119 23.8184Z" fill="#00425B"/>
<path d="M41.1718 15.8053C40.9689 11.0987 43.9012 7.71845 48.3088 7.52503C52.8086 7.33161 55.7962 10.2145 55.9991 14.8935L56.0452 16.0171L44.7403 16.5329C45.1276 19.1671 46.5845 20.4382 49.0465 20.3369C51.0843 20.2448 52.3845 19.3974 52.7533 17.9606L56.1927 17.8132C55.6948 21.1198 53.0392 23.2106 49.1202 23.3856C44.6481 23.579 41.3746 20.4658 41.181 15.8145L41.1718 15.8053ZM44.7218 14.1658L52.2646 13.8435C52.1724 11.7803 50.6878 10.4724 48.4656 10.5645C46.2802 10.6566 44.9892 11.9 44.7218 14.1658Z" fill="#00425B"/>
<path d="M59.1618 22.5934L58.9128 7.58029L62.3523 7.52503L62.6842 9.46845C63.6063 7.93029 65.4136 7.01845 67.4515 6.99082C71.2228 6.92634 73.2146 9.23818 73.2791 13.125L73.4359 22.3632L69.7198 22.4277L69.5815 14.0737C69.5354 11.55 68.2721 10.3527 66.3542 10.3895C64.0766 10.4263 62.7027 12.029 62.7395 14.4606L62.8779 22.5474L59.1618 22.6119V22.5934Z" fill="#00425B"/>
<path d="M78.3506 22.3724L78.4059 10.454H75.5105L75.5289 7.34082H78.4243L78.4428 2.67108L82.1588 2.6895L82.1404 7.36845H85.0634L85.045 10.4816H82.1219L82.0666 22.3816L78.3506 22.3632V22.3724Z" fill="#00425B"/>
<path d="M87.1751 2.17372C87.1935 0.930297 88.217 -0.0275979 89.4987 3.36645e-05C90.7159 0.0184547 91.7026 1.01319 91.6749 2.25661C91.6472 3.50003 90.6329 4.48556 89.4158 4.46714C88.134 4.43951 87.1566 3.42635 87.1751 2.17372ZM87.507 7.44214L91.2231 7.50661L90.9557 22.5198L87.2396 22.4553L87.507 7.44214Z" fill="#00425B"/>
<path d="M102.408 7.41449C107.056 7.58949 110.311 10.9421 110.135 15.6119C109.96 20.2908 106.456 23.3763 101.809 23.2013C97.1615 23.0263 93.9065 19.6737 94.0817 15.004C94.2569 10.325 97.7609 7.23949 102.408 7.41449ZM101.938 19.8948C104.492 19.9869 106.327 18.2092 106.429 15.4737C106.53 12.7382 104.843 10.8224 102.288 10.7211C99.7342 10.6198 97.8992 12.4066 97.7977 15.1421C97.6963 17.8776 99.3838 19.7934 101.938 19.8948Z" fill="#00425B"/>
<path d="M112.671 23.3027L113.649 8.31714L117.079 8.53819L117.254 10.5C118.296 9.04477 120.177 8.2803 122.206 8.41846C125.968 8.66714 127.757 11.1264 127.508 15.004L126.908 24.2237L123.201 23.9842L123.745 15.6395C123.911 13.125 122.74 11.8263 120.832 11.7066C118.554 11.5592 117.051 13.0421 116.894 15.4737L116.369 23.5421L112.662 23.3027H112.671Z" fill="#00425B"/>
<path d="M139.919 25.4027L141.109 13.5487L138.232 13.2632L138.536 10.1777L141.413 10.4632L141.874 5.80267L145.572 6.17109L145.111 10.8316L148.015 11.1171L147.711 14.2027L144.806 13.9171L143.617 25.7711L139.919 25.4027Z" fill="#00425B"/>
<path d="M157.513 11.7895C162.132 12.3513 165.102 15.9526 164.53 20.6039C163.967 25.2461 160.224 28.0461 155.604 27.4842C150.984 26.9224 148.015 23.3211 148.587 18.6697C149.149 14.0276 152.893 11.2276 157.513 11.7895ZM156.001 24.1868C158.536 24.4908 160.51 22.8697 160.842 20.1526C161.173 17.4355 159.643 15.3816 157.107 15.0776C154.571 14.7737 152.598 16.3947 152.266 19.1118C151.934 21.8289 153.465 23.8829 156.001 24.1868Z" fill="#00425B"/>
<path d="M174.802 22.1605C175.558 17.5461 178.804 14.6816 183.276 15.4184C185.351 15.7592 187.038 16.929 187.73 18.55L189.27 9.16449L192.903 9.75396L189.251 32.0711L185.886 31.5184L186.024 29.1698C184.844 30.7355 182.76 31.4079 180.51 31.0395C176.213 30.3395 174.055 26.7566 174.811 22.1605H174.802ZM186.799 23.9934C187.232 21.3224 185.886 19.1948 183.341 18.7803C180.796 18.3658 178.915 19.9961 178.481 22.6395C178.048 25.2829 179.302 27.3921 181.856 27.8066C184.41 28.2211 186.356 26.6645 186.799 23.9934Z" fill="#00425B"/>
<path d="M193.447 25.1632C194.36 20.5395 198.002 17.9421 202.327 18.7895C206.744 19.6553 208.975 23.1645 208.071 27.7514L207.85 28.8566L196.739 26.7106C196.499 29.354 197.615 30.9382 200.031 31.4171C202.032 31.8132 203.498 31.2882 204.189 29.9711L207.564 30.6342C206.301 33.729 203.24 35.1474 199.385 34.3829C194.996 33.5171 192.552 29.7224 193.447 25.1632ZM197.292 24.3987L204.697 25.854C205.093 23.8277 203.959 22.2066 201.773 21.7829C199.625 21.3592 198.085 22.2619 197.292 24.3987Z" fill="#00425B"/>
<path d="M210.552 36.3448L213.226 24.7303L210.404 24.0855L211.096 21.0645L213.917 21.7092L214.969 17.15L218.583 17.979L217.532 22.5382L220.381 23.1921L219.69 26.2132L216.841 25.5592L214.166 37.1737L210.552 36.3448Z" fill="#00425B"/>
<path d="M219.459 33.9961C220.123 31.3158 222.493 30.1184 226.015 30.7079L230.469 31.4724L230.552 31.15C231.041 29.1698 230.063 28.0829 228.228 27.6316C226.098 27.1066 224.697 27.6961 224.319 29.225L221.248 28.4605C222.032 25.3013 225.148 23.8829 229.104 24.8684C233.032 25.8448 234.923 28.5711 233.918 32.6145L231.714 41.4658L228.551 40.6829L228.818 38.4632C227.823 39.8171 225.591 40.3513 223.313 39.7895C220.215 39.0158 218.768 36.75 219.45 34.0053L219.459 33.9961ZM229.694 34.6869L229.888 33.9224L226.79 33.4066C224.494 33.0566 223.452 33.5816 223.157 34.7605C222.825 36.0869 223.553 36.9526 225.176 37.3579C227.389 37.9105 229.141 36.9342 229.694 34.6869Z" fill="#00425B"/>
<path d="M238.934 27.8251L242.53 28.7553L238.777 43.2895L235.181 42.3593L238.934 27.8251ZM239.838 22.6303C240.151 21.4237 241.368 20.7329 242.604 21.0553C243.784 21.3593 244.513 22.5474 244.199 23.754C243.885 24.9606 242.668 25.679 241.488 25.3751C240.252 25.0527 239.533 23.8369 239.838 22.6303Z" fill="#00425B"/>
<path d="M242.53 44.2658L248.256 22.3908L251.816 23.3211L246.089 45.1961L242.53 44.2658Z" fill="#00425B"/>
<path d="M249.63 49.7369L250.008 48.3C251.391 48.4105 252.608 47.8855 252.876 46.854C252.608 46.9092 252.332 46.9 251.972 46.8079C250.829 46.504 250.11 45.4079 250.423 44.229C250.792 42.8198 251.954 42.1198 253.282 42.4698C254.757 42.8566 255.495 44.3395 255.015 46.1632C254.37 48.604 252.092 50.0777 249.63 49.7461V49.7369Z" fill="#00425B"/>
<path d="M266.818 46.2369C267.528 43.5658 269.916 42.4053 273.429 43.0592L277.865 43.8974L277.948 43.575C278.473 41.604 277.505 40.4987 275.689 40.0198C273.568 39.4579 272.157 40.0198 271.751 41.5487L268.69 40.7382C269.529 37.5974 272.664 36.225 276.601 37.275C280.511 38.3158 282.355 41.0697 281.286 45.0947L278.934 53.9092L275.79 53.0711L276.094 50.8605C275.08 52.1961 272.83 52.6934 270.571 52.0948C267.482 51.275 266.08 48.9816 266.809 46.2461L266.818 46.2369ZM277.044 47.1026L277.247 46.3382L274.158 45.7671C271.871 45.3803 270.82 45.8869 270.506 47.0566C270.156 48.3829 270.866 49.2579 272.48 49.6908C274.683 50.2803 276.445 49.3316 277.044 47.1026Z" fill="#00425B"/>
<path d="M294.96 42.6355L295.431 40.8763C296.491 36.9434 299.018 35.8658 302.162 36.704C302.715 36.8513 303.388 37.0632 303.969 37.3487L303.149 40.3974L301.885 40.0566C300.06 39.5684 299.368 40.3882 298.981 41.825L298.511 43.5842L301.978 44.5145L301.175 47.5079L297.708 46.5776L294.61 58.0816L291.051 57.1237L294.149 45.6197L292.065 45.0579L292.877 42.0645L294.96 42.6263V42.6355Z" fill="#00425B"/>
<path d="M310.858 46.4856C315.348 47.7106 317.764 51.7079 316.528 56.2211C315.293 60.7343 311.189 62.9632 306.699 61.7382C302.208 60.5132 299.792 56.5158 301.028 52.0027C302.264 47.4895 306.367 45.2606 310.858 46.4856ZM307.566 58.5422C310.028 59.2145 312.222 57.8882 312.941 55.2448C313.661 52.6014 312.444 50.354 309.982 49.6816C307.52 49.0093 305.325 50.3356 304.606 52.979C303.886 55.6224 305.104 57.8698 307.566 58.5422Z" fill="#00425B"/>
<path d="M327.898 51.1369C331.854 52.2329 333.947 55.1803 333.357 58.7724L329.779 57.7776C329.825 56.0276 328.857 54.8395 327.16 54.3698C324.873 53.7342 322.872 55.0421 322.116 57.7684C321.36 60.4948 322.291 62.5855 324.578 63.2119C326.367 63.7092 327.87 63.175 328.691 61.7013L332.296 62.6961C330.922 65.9382 327.464 67.4763 323.684 66.4263C319.285 65.2105 317.257 61.3698 318.539 56.7645C319.783 52.279 323.619 49.9395 327.907 51.1276L327.898 51.1369Z" fill="#00425B"/>
<path d="M350.941 58.0816L346.847 72.5329L343.537 71.5934L343.822 69.5855C342.55 70.7092 340.411 71.1145 338.483 70.5711C335.145 69.6316 333.818 66.8224 334.823 63.2855L337.386 54.25L340.955 55.2632L338.751 63.046C337.976 65.7908 338.742 67.2092 340.733 67.7711C342.992 68.4066 344.44 67.4026 345.224 64.6487L347.372 57.0776L350.941 58.0908V58.0816Z" fill="#00425B"/>
<path d="M353.744 69.7605C353.412 71.0224 354.122 72.0816 355.754 72.5513C357.423 73.0303 358.521 72.6158 358.825 71.5658C359.037 70.8382 358.807 70.2026 357.608 69.5395L355.183 68.1763C352.748 66.8408 351.845 65.2566 352.509 62.9447C353.329 60.1079 356.206 59.104 359.544 60.0618C362.79 60.9921 364.441 63.4974 363.666 66.3066L360.273 65.3303C360.595 64.0961 360.005 63.0737 358.631 62.6776C357.23 62.2724 356.225 62.6776 355.911 63.7645C355.671 64.5842 356.169 65.2934 357.313 65.9382L359.738 67.3013C362.006 68.554 362.91 70.0184 362.274 72.2382C361.434 75.1579 358.428 76.254 354.86 75.2316C351.264 74.2 349.539 71.6118 350.351 68.7842L353.744 69.7605Z" fill="#00425B"/>
<path d="M382.864 66.9053C387.327 68.2224 389.651 72.275 388.323 76.7605C386.995 81.2461 382.836 83.3829 378.373 82.0566C373.91 80.7395 371.587 76.6869 372.915 72.2013C374.242 67.7158 378.401 65.579 382.864 66.9053ZM379.314 78.8882C381.767 79.6158 383.989 78.3355 384.763 75.7105C385.538 73.0855 384.376 70.8105 381.923 70.0829C379.471 69.3553 377.248 70.6356 376.474 73.2606C375.699 75.8856 376.861 78.1606 379.314 78.8882Z" fill="#00425B"/>
<path d="M388.987 84.829L393.321 70.4514L396.613 71.4369L396.345 73.3895C397.682 72.2014 399.692 71.8882 401.638 72.4777C405.253 73.5645 406.442 76.3645 405.317 80.0948L402.652 88.9461L399.093 87.8777L401.5 79.8737C402.228 77.4606 401.38 75.9316 399.545 75.379C397.359 74.725 395.561 75.8303 394.861 78.1606L392.528 85.9066L388.978 84.8382L388.987 84.829Z" fill="#00425B"/>
<path d="M418.328 77.9763L421.887 79.0447L417.553 93.4224L414.003 92.3539L418.337 77.9763H418.328ZM419.434 72.8184C419.794 71.621 421.039 70.9855 422.256 71.3539C423.418 71.7039 424.1 72.9289 423.741 74.1171C423.381 75.3145 422.127 75.9776 420.965 75.6276C419.739 75.2592 419.065 74.0066 419.425 72.8184H419.434Z" fill="#00425B"/>
<path d="M421.149 94.5461L425.363 80.1316L428.637 81.0895L428.434 82.8671C429.513 81.8816 431.246 81.375 433.321 81.9829C435.516 82.6184 436.714 84.1474 436.991 86.0263C438.208 84.5803 440.218 83.9908 442.404 84.6263C445.908 85.6487 447.226 88.3105 446.249 91.6355L443.492 101.058L439.96 100.026L442.441 91.5342C443.049 89.4619 442.247 88.0619 440.56 87.5645C438.835 87.0579 437.194 87.7855 436.512 90.1526L434.123 98.3224L430.555 97.2816L433.044 88.7619C433.635 86.7448 432.869 85.354 431.173 84.8566C429.476 84.3592 427.779 85.0684 427.097 87.4079L424.709 95.5776L421.149 94.5369V94.5461Z" fill="#00425B"/>
<path d="M446.83 102.025L450.518 87.4632L453.819 88.3014L453.681 90.0882C454.723 89.0658 456.438 88.4948 458.531 89.029C460.744 89.5908 461.998 91.0645 462.34 92.9435C463.501 91.4514 465.493 90.7882 467.706 91.35C471.247 92.2435 472.658 94.8592 471.809 98.2211L469.403 107.745L465.834 106.842L468.001 98.2671C468.527 96.1764 467.688 94.804 465.973 94.3711C464.23 93.929 462.625 94.7119 462.017 97.1066L459.933 105.359L456.337 104.447L458.513 95.8448C459.029 93.8092 458.209 92.4461 456.503 92.0132C454.788 91.5803 453.119 92.354 452.528 94.7119L450.444 102.965L446.848 102.053L446.83 102.025Z" fill="#00425B"/>
<path d="M473.811 100.947C474.779 96.3329 478.449 93.7816 482.773 94.6842C487.181 95.6053 489.366 99.1329 488.407 103.72L488.177 104.825L477.093 102.541C476.817 105.184 477.914 106.778 480.33 107.284C482.321 107.699 483.797 107.201 484.507 105.893L487.873 106.593C486.572 109.679 483.493 111.051 479.647 110.25C475.267 109.338 472.87 105.507 473.82 100.957L473.811 100.947ZM477.665 100.229L485.051 101.776C485.475 99.75 484.359 98.1198 482.183 97.6684C480.035 97.2171 478.486 98.1106 477.665 100.238V100.229Z" fill="#00425B"/>
<path d="M501.04 102.126L499.694 101.878C497.057 101.389 495.157 102.486 494.622 105.359L493.285 112.534L489.634 111.853L492.372 97.125L495.812 97.7605L495.618 99.9526C496.522 98.6079 498.108 97.8803 500.081 98.2487C500.588 98.3408 501.086 98.4974 501.658 98.7553L501.031 102.136L501.04 102.126Z" fill="#00425B"/>
<path d="M504.452 109.891C504.258 111.18 505.079 112.157 506.757 112.442C508.463 112.737 509.514 112.203 509.699 111.125C509.828 110.379 509.533 109.771 508.26 109.246L505.697 108.159C503.133 107.1 502.054 105.626 502.469 103.259C502.967 100.358 505.724 99.0408 509.145 99.6211C512.474 100.192 514.392 102.495 513.931 105.378L510.455 104.779C510.639 103.517 509.938 102.559 508.528 102.32C507.089 102.071 506.139 102.587 505.946 103.692C505.798 104.53 506.37 105.184 507.578 105.7L510.141 106.787C512.529 107.782 513.599 109.136 513.203 111.411C512.686 114.404 509.818 115.822 506.158 115.196C502.469 114.561 500.468 112.184 500.966 109.283L504.443 109.882L504.452 109.891Z" fill="#00425B"/>
<path d="M517.656 101.528L521.317 102.136L518.864 116.955L515.203 116.347L517.656 101.528ZM518.099 96.2684C518.302 95.0434 519.454 94.2421 520.708 94.454C521.907 94.6566 522.746 95.7803 522.534 97.0053C522.331 98.2303 521.179 99.0592 519.971 98.8658C518.707 98.654 517.887 97.5027 518.09 96.2777L518.099 96.2684Z" fill="#00425B"/>
<path d="M531.976 103.388C536.578 104.088 539.436 107.782 538.726 112.405C538.016 117.029 534.199 119.709 529.597 119.009C524.996 118.309 522.138 114.616 522.848 109.992C523.558 105.368 527.375 102.688 531.976 103.388ZM530.095 115.74C532.622 116.126 534.641 114.551 535.056 111.853C535.471 109.154 534.005 107.054 531.478 106.667C528.952 106.28 526.932 107.855 526.517 110.554C526.103 113.253 527.569 115.353 530.095 115.74Z" fill="#00425B"/>
<path d="M540.377 120.243L542.258 105.341L545.67 105.774L545.725 107.745C546.85 106.354 548.777 105.709 550.797 105.967C554.54 106.437 556.182 109.007 555.693 112.866L554.531 122.03L550.843 121.57L551.894 113.28C552.207 110.775 551.128 109.412 549.22 109.172C546.951 108.887 545.365 110.278 545.061 112.691L544.047 120.713L540.358 120.253L540.377 120.243Z" fill="#00425B"/>
<path d="M558.358 125.936L558.514 124.453C559.897 124.351 561.013 123.642 561.124 122.583C560.866 122.675 560.589 122.712 560.229 122.675C559.049 122.555 558.173 121.579 558.302 120.363C558.45 118.908 559.492 118.042 560.856 118.18C562.369 118.337 563.328 119.691 563.134 121.561C562.876 124.066 560.847 125.88 558.367 125.926L558.358 125.936Z" fill="#00425B"/>
<path d="M574.467 119.672C574.651 116.909 576.772 115.316 580.34 115.279L584.859 115.242L584.877 114.911C585.015 112.875 583.854 111.982 581.973 111.853C579.787 111.705 578.515 112.534 578.404 114.109L575.25 113.897C575.472 110.655 578.284 108.703 582.351 108.979C586.389 109.246 588.731 111.595 588.455 115.749L587.846 124.849L584.601 124.628L584.471 122.399C583.734 123.9 581.622 124.83 579.289 124.674C576.099 124.462 574.282 122.482 574.467 119.663V119.672ZM584.665 118.558L584.72 117.766L581.576 117.803C579.252 117.858 578.321 118.558 578.238 119.774C578.146 121.137 579.013 121.865 580.682 121.975C582.959 122.132 584.508 120.861 584.665 118.558Z" fill="#00425B"/>
<path d="M591.489 125.051L592.014 110.047L595.454 110.167L595.693 112.12C596.689 110.637 598.543 109.817 600.58 109.891C604.352 110.02 606.214 112.424 606.076 116.311L605.753 125.539L602.046 125.411L602.332 117.057C602.415 114.533 601.217 113.28 599.299 113.216C597.021 113.133 595.564 114.671 595.481 117.093L595.205 125.171L591.498 125.042L591.489 125.051Z" fill="#00425B"/>
<path d="M608.372 118.153C608.372 113.474 611.111 110.13 615.647 110.13C617.75 110.13 619.603 111.014 620.544 112.507V102.992H624.232V125.613H620.811L620.571 123.274C619.659 125.005 617.713 126.009 615.426 126.009C611.074 126.009 608.363 122.813 608.372 118.162V118.153ZM620.516 118.033C620.516 115.325 618.847 113.446 616.256 113.437C613.665 113.437 612.088 115.353 612.088 118.024C612.088 120.695 613.665 122.583 616.256 122.583C618.847 122.583 620.516 120.732 620.516 118.024V118.033Z" fill="#00425B"/>
<path d="M637.63 125.226L637.141 113.317L634.255 113.437L634.126 110.342L637.012 110.222L636.819 105.543L640.526 105.396L640.719 110.075L643.642 109.955L643.771 113.05L640.848 113.17L641.337 125.079L637.63 125.226Z" fill="#00425B"/>
<path d="M646.86 124.849L645.321 102.283L649.055 102.025L649.701 111.549C650.54 110.029 652.236 108.97 654.394 108.822C658.101 108.574 660.203 110.775 660.461 114.653L661.088 123.872L657.382 124.121L656.81 115.776C656.635 113.262 655.307 112.129 653.426 112.258C651.084 112.414 649.83 114.146 649.986 116.393L650.549 124.582L646.842 124.83L646.86 124.849Z" fill="#00425B"/>
<path d="M663.55 116.136C663.062 111.447 665.782 107.892 670.162 107.441C674.643 106.971 677.797 109.67 678.286 114.321L678.405 115.436L667.147 116.642C667.691 119.239 669.221 120.428 671.674 120.17C673.703 119.958 674.948 119.037 675.224 117.563L678.645 117.204C678.35 120.538 675.833 122.786 671.932 123.191C667.479 123.651 664.03 120.75 663.541 116.117L663.55 116.136ZM666.999 114.275L674.505 113.492C674.293 111.438 672.725 110.222 670.512 110.453C668.336 110.683 667.128 112 666.999 114.275Z" fill="#00425B"/>
<path d="M688.705 113.308C687.977 108.684 690.162 104.954 694.644 104.254C696.718 103.932 698.691 104.512 699.853 105.838L698.378 96.4434L702.011 95.8724L705.524 118.208L702.159 118.733L701.55 116.458C700.914 118.309 699.153 119.608 696.893 119.958C692.596 120.63 689.424 117.904 688.705 113.308ZM700.674 111.3C700.25 108.629 698.304 107.026 695.75 107.432C693.196 107.837 691.933 109.974 692.347 112.608C692.762 115.242 694.616 116.863 697.17 116.467C699.724 116.062 701.089 113.971 700.665 111.3H700.674Z" fill="#00425B"/>
<path d="M706.935 110.333C706.078 105.7 708.503 101.942 712.837 101.141C717.263 100.321 720.628 102.753 721.486 107.358L721.689 108.463L710.568 110.554C711.324 113.105 712.938 114.165 715.363 113.713C717.364 113.345 718.535 112.322 718.692 110.84L722.076 110.213C722.048 113.557 719.715 115.997 715.861 116.716C711.463 117.536 707.793 114.911 706.935 110.333ZM710.227 108.205L717.641 106.833C717.263 104.797 715.603 103.72 713.427 104.125C711.269 104.521 710.172 105.93 710.227 108.215V108.205Z" fill="#00425B"/>
<path d="M727.166 109.486C727.452 110.757 728.577 111.374 730.246 111.033C731.942 110.692 732.726 109.817 732.514 108.739C732.367 107.993 731.869 107.542 730.495 107.505L727.71 107.413C724.934 107.358 723.404 106.363 722.924 104.014C722.334 101.122 724.427 98.9026 727.83 98.2119C731.14 97.5395 733.759 98.9948 734.377 101.85L730.919 102.55C730.633 101.307 729.637 100.671 728.235 100.957C726.806 101.251 726.105 102.071 726.327 103.176C726.493 104.014 727.258 104.411 728.577 104.457L731.361 104.549C733.953 104.613 735.437 105.488 735.889 107.754C736.497 110.729 734.331 113.096 730.697 113.833C727.028 114.579 724.307 113.078 723.717 110.195L727.175 109.495L727.166 109.486Z" fill="#00425B"/>
<path d="M734.902 91.8566C734.644 90.6408 735.428 89.4803 736.673 89.2132C737.862 88.9645 739.042 89.7105 739.301 90.9263C739.559 92.1421 738.784 93.3303 737.595 93.5882C736.341 93.8553 735.151 93.0724 734.902 91.8566ZM736.405 96.9132L740.038 96.1487L743.136 110.839L739.503 111.604L736.405 96.9132Z" fill="#00425B"/>
<path d="M753.639 96.6921L752.302 96.9776C749.683 97.5395 748.346 99.2895 748.964 102.145L750.495 109.283L746.862 110.066L743.708 95.4118L747.129 94.675L747.793 96.775C748.107 95.1816 749.296 93.9013 751.26 93.4868C751.767 93.3763 752.284 93.3303 752.911 93.3487L753.63 96.7105L753.639 96.6921Z" fill="#00425B"/>
<path d="M755.613 100.496C754.617 95.8908 756.94 92.0684 761.256 91.1382C765.654 90.1895 769.084 92.529 770.071 97.1066L770.311 98.2027L759.255 100.616C760.076 103.139 761.726 104.153 764.142 103.637C766.134 103.204 767.277 102.154 767.397 100.671L770.763 99.9526C770.827 103.296 768.568 105.801 764.732 106.63C760.361 107.57 756.608 105.046 755.631 100.505L755.613 100.496ZM758.84 98.2763L766.217 96.6921C765.783 94.675 764.096 93.6342 761.92 94.104C759.78 94.5645 758.72 96.0013 758.84 98.2763Z" fill="#00425B"/>
<path d="M784.013 102.145L781.588 90.4842L778.757 91.0737L778.13 88.0435L780.961 87.454L780.011 82.8764L783.644 82.1211L784.594 86.7079L787.453 86.1185L788.089 89.1487L785.23 89.7382L787.655 101.399L784.022 102.154L784.013 102.145Z" fill="#00425B"/>
<path d="M796.508 83.7974C801.072 82.8579 805.028 85.3356 805.968 89.9224C806.909 94.5093 804.253 98.3408 799.689 99.2803C795.125 100.22 791.169 97.7329 790.228 93.1553C789.288 88.5685 791.943 84.7369 796.508 83.7974ZM799.025 96.0382C801.533 95.5224 802.889 93.3487 802.335 90.6777C801.782 87.9974 799.68 86.5329 797.181 87.0487C794.673 87.5645 793.317 89.729 793.871 92.4093C794.424 95.0895 796.526 96.554 799.025 96.0382Z" fill="#00425B"/>
<path d="M821.865 78.6211C825.895 77.8105 829.085 79.4961 830.192 82.9592L826.549 83.6868C825.793 82.1026 824.401 81.4855 822.667 81.8355C820.344 82.3053 819.145 84.3776 819.707 87.1408C820.27 89.9132 822.05 91.35 824.373 90.8803C826.19 90.5118 827.296 89.3605 827.361 87.675L831.031 86.9382C831.271 90.4566 828.882 93.3855 825.037 94.1592C820.565 95.0618 817.015 92.5474 816.074 87.8684C815.152 83.3092 817.522 79.4868 821.874 78.6118L821.865 78.6211Z" fill="#00425B"/>
<path d="M838.795 75.2592C843.359 74.3474 847.306 76.8526 848.219 81.4395C849.132 86.0263 846.458 89.8487 841.884 90.7605C837.32 91.6724 833.373 89.1671 832.46 84.5803C831.547 79.9934 834.221 76.1711 838.795 75.2592ZM841.238 87.5092C843.747 87.0119 845.111 84.8474 844.576 82.1671C844.042 79.4869 841.949 78.0132 839.44 78.5105C836.932 79.0079 835.568 81.1724 836.102 83.8526C836.637 86.5329 838.73 88.0066 841.238 87.5092Z" fill="#00425B"/>
<path d="M852.58 88.2645L849.667 73.5276L853.041 72.8645L853.715 74.7158C854.342 73.0395 855.964 71.8237 857.965 71.4276C861.672 70.7 864.033 72.6158 864.789 76.4382L866.578 85.5013L862.935 86.2198L861.313 78.0224C860.824 75.5447 859.367 74.5961 857.486 74.9645C855.245 75.4066 854.185 77.2303 854.655 79.6158L856.223 87.5461L852.58 88.2645Z" fill="#00425B"/>
<path d="M871.419 79.9105C871.695 81.1908 872.811 81.8079 874.489 81.4763C876.195 81.1447 876.979 80.2789 876.776 79.2013C876.629 78.4553 876.14 77.9947 874.766 77.9579L871.991 77.8474C869.215 77.7737 867.684 76.7697 867.223 74.4118C866.661 71.5197 868.763 69.3092 872.166 68.6461C875.476 68.0013 878.095 69.4658 878.685 72.3303L875.218 73.0026C874.941 71.7592 873.945 71.1145 872.544 71.3908C871.115 71.6671 870.405 72.4868 870.617 73.5921C870.783 74.4303 871.539 74.8355 872.857 74.8908L875.642 75.0013C878.233 75.0842 879.708 75.9684 880.151 78.2342C880.732 81.2184 878.556 83.5579 874.914 84.2763C871.244 84.9947 868.523 83.4842 867.961 80.5921L871.428 79.9197L871.419 79.9105Z" fill="#00425B"/>
<path d="M885.167 81.8816L882.899 70.1842L880.059 70.7368L879.469 67.6974L882.309 67.1447L881.414 62.5487L885.057 61.8395L885.951 66.4355L888.819 65.8829L889.409 68.9224L886.541 69.475L888.81 81.1724L885.167 81.8816Z" fill="#00425B"/>
<path d="M892.406 76.1066C891.88 73.3895 893.521 71.3079 896.97 70.3685L901.332 69.1895L901.267 68.8579C900.88 66.8593 899.533 66.279 897.68 66.6382C895.532 67.0527 894.508 68.1764 894.803 69.7329L891.696 70.3316C891.078 67.1356 893.309 64.5382 897.311 63.7645C901.285 63.0001 904.153 64.6764 904.946 68.7658L906.68 77.7185L903.48 78.3356L902.788 76.2079C902.456 77.8474 900.658 79.2843 898.353 79.7264C895.218 80.3343 892.95 78.879 892.415 76.1066H892.406ZM901.986 72.4316L901.839 71.6579L898.805 72.4869C896.573 73.1316 895.854 74.0435 896.085 75.2408C896.343 76.5856 897.367 77.0645 899.008 76.7514C901.249 76.3185 902.429 74.6974 901.986 72.4316Z" fill="#00425B"/>
<path d="M910.248 77.0369L907.427 62.2908L910.802 61.6461L911.465 63.4974C912.111 61.8303 913.734 60.6237 915.735 60.2369C919.442 59.5277 921.793 61.4619 922.521 65.2842L924.255 74.3566L920.613 75.0566L919.045 66.85C918.575 64.3724 917.118 63.4145 915.237 63.7737C912.996 64.1974 911.917 66.0211 912.378 68.4066L913.9 76.3461L910.258 77.0461L910.248 77.0369Z" fill="#00425B"/>
<path d="M929.216 73.4263L926.994 61.7197L924.154 62.254L923.573 59.2053L926.413 58.6711L925.537 54.075L929.188 53.3842L930.064 57.9803L932.932 57.4368L933.513 60.4855L930.645 61.029L932.868 72.7355L929.216 73.4263Z" fill="#00425B"/>
<path d="M938.068 71.75L933.873 49.5342L937.487 48.8527L941.683 71.0685L938.068 71.75Z" fill="#00425B"/>
<path d="M944.938 74.3842L947.123 73.979C948.562 73.7119 949.392 73.2145 949.696 71.3632L949.908 70.175L941.065 55.8987L944.919 55.1711L950.738 65.2197L952.729 53.7158L956.501 53.0066L952.656 72.4132C952.066 75.3698 950.719 76.7974 948.303 77.2487C947.289 77.4421 946.367 77.4882 945.519 77.4329L944.947 74.3842H944.938Z" fill="#00425B"/>
<path d="M965.279 46.0342C965.049 44.8092 965.86 43.6671 967.114 43.4369C968.313 43.2158 969.475 43.9895 969.705 45.2145C969.936 46.4395 969.133 47.6092 967.935 47.8303C966.681 48.0605 965.51 47.2592 965.279 46.0342ZM966.662 51.1276L970.314 50.4461L973.062 65.2105L969.41 65.8921L966.662 51.1276Z" fill="#00425B"/>
<path d="M976.796 64.4921L974.104 49.7184L977.46 49.1105L978.078 50.7868C978.603 49.4237 979.922 48.1987 982.052 47.8118C984.302 47.4066 986.054 48.2263 987.142 49.7921C987.575 47.95 989.115 46.5316 991.365 46.1171C994.961 45.4632 997.322 47.2592 997.949 50.6671L999.71 60.3289L996.086 60.9829L994.5 52.2789C994.113 50.1513 992.776 49.2579 991.042 49.5711C989.272 49.8934 988.138 51.275 988.58 53.6974L990.102 62.0697L986.45 62.7329L984.864 54.0013C984.486 51.9382 983.177 51.0355 981.443 51.3487C979.71 51.6618 978.502 53.0526 978.945 55.4474L980.466 63.8197L976.814 64.4829L976.796 64.4921Z" fill="#00425B"/>
<path d="M1000.67 44.9198L1004.05 44.3303L1004.68 46.5316C1005.28 44.6711 1007.06 43.3448 1009.31 42.9487C1013.48 42.2211 1016.76 44.7724 1017.57 49.4145C1018.37 54.029 1016.44 57.8145 1012.03 58.5882C1009.81 58.975 1007.74 58.4408 1006.55 57.1053L1008.09 65.9382L1004.43 66.5737L1000.66 44.9198H1000.67ZM1010.6 55.4474C1013.18 54.9961 1014.38 52.8776 1013.93 50.2434C1013.48 47.6092 1011.61 45.9882 1009.03 46.4395C1006.52 46.8816 1005.19 49.0184 1005.65 51.6895C1006.11 54.3605 1008.08 55.8987 1010.6 55.4566V55.4474Z" fill="#00425B"/>
<path d="M1029.15 43.4645L1027.81 43.6948C1025.17 44.1369 1023.75 45.8224 1024.24 48.7053L1025.46 55.8987L1021.79 56.5158L1019.3 41.7329L1022.75 41.1527L1023.33 43.2711C1023.71 41.6961 1024.95 40.4711 1026.93 40.1395C1027.44 40.0566 1027.96 40.029 1028.59 40.075L1029.16 43.4645H1029.15Z" fill="#00425B"/>
<path d="M1037.62 38.2329C1042.21 37.4869 1046.06 40.1303 1046.82 44.7448C1047.58 49.3684 1044.75 53.0895 1040.16 53.8355C1035.57 54.5816 1031.72 51.9382 1030.96 47.3237C1030.2 42.7092 1033.03 38.979 1037.62 38.2329ZM1039.63 50.5658C1042.15 50.1605 1043.59 48.0421 1043.16 45.3434C1042.72 42.6447 1040.68 41.0974 1038.15 41.5026C1035.63 41.9079 1034.19 44.0263 1034.62 46.725C1035.05 49.4237 1037.1 50.9711 1039.63 50.5658Z" fill="#00425B"/>
<path d="M1046.18 37.275L1050.09 36.6671L1053.75 43.0869C1054.65 44.7632 1055.4 46.2092 1055.71 46.9921C1055.77 46.025 1056.07 44.3855 1056.45 42.6632L1058.09 35.4237L1061.88 34.8342L1058 50.6395L1054.39 51.2013L1046.18 37.2842V37.275Z" fill="#00425B"/>
<path d="M1063.57 42.175C1062.87 37.5145 1065.44 33.8487 1069.8 33.1947C1074.25 32.5316 1077.53 35.0921 1078.22 39.7158L1078.38 40.8303L1067.19 42.525C1067.85 45.1039 1069.43 46.2184 1071.86 45.8592C1073.88 45.5645 1075.09 44.5789 1075.3 43.1053L1078.71 42.5987C1078.56 45.9421 1076.14 48.3 1072.26 48.8711C1067.83 49.525 1064.26 46.7711 1063.57 42.175H1063.57ZM1066.93 40.1671L1074.39 39.0618C1074.09 37.0171 1072.47 35.875 1070.28 36.1974C1068.11 36.5197 1066.96 37.8921 1066.93 40.1671Z" fill="#00425B"/>
<path d="M1081.09 45.1224C1080.9 43.7961 1081.86 42.5526 1083.19 42.3684C1084.52 42.1842 1085.78 43.1053 1085.97 44.4316C1086.16 45.7211 1085.2 46.9645 1083.87 47.1579C1082.54 47.3513 1081.28 46.4211 1081.09 45.1316V45.1224Z" fill="#00425B"/>
</g>
<defs>
<clipPath id="clip0_131_40121">
<rect width="1086" height="126" fill="white"/>
</clipPath>
</defs>
</svg>
