<svg width="1169" height="1123" viewBox="0 0 1169 1123" fill="none" xmlns="http://www.w3.org/2000/svg">
<g opacity="0.8" filter="url(#filter0_f_96_63908)">
<path d="M244.27 578.183C312.471 749.967 387.583 934.728 556.994 921.773C668.135 920.78 762.229 853.55 872.764 849.403C966.743 869.784 997.327 753.153 963.239 636.068C920.698 377.758 709.149 298.743 567.917 341.118C494.266 375.27 406.559 288.605 334.623 319.624C293.444 336.374 220.215 513.823 244.27 578.183Z" fill="#FF71D7" fill-opacity="0.37"/>
<path d="M197.328 466.598C212.576 504.979 227.958 543.548 244.931 581.082C261.495 617.65 279.529 653.595 300.722 686.468C321.028 718.583 344.792 746.478 370.696 768.605C399.088 792.224 429.725 806.424 459.732 812.697C477.679 816.303 495.379 817.519 512.584 816.33C523.526 815.82 534.552 815.55 545.39 814.37C556.705 813.155 567.889 811.381 578.954 809.211C622.814 800.403 664.41 784.515 706.628 770.698C727.519 763.8 748.607 757.336 770.099 752.447C780.988 749.969 791.965 747.864 803.126 746.401C813.6 745.013 824.721 742.621 835.866 744.632C869.655 750.778 900.373 738.342 919.233 707.138C937.383 677.128 942.972 634.023 939.358 589.869C938.392 578.183 936.751 566.377 934.452 554.559C933.279 548.53 931.944 542.525 930.448 536.544C928.796 530.717 927.356 524.852 926.134 518.976C922.109 495.399 916.239 471.826 908.632 448.689C895.034 407.649 875.065 369.193 850.405 336.555C826.425 305.471 799.257 279.876 770.523 261.298C740.399 241.697 709.454 227.7 678.674 219.752C646.872 211.337 615.436 207.975 585.009 209.735C569.858 210.545 554.982 212.579 540.453 215.826C533.198 217.303 526.119 219.373 519.249 222.027C511.597 225.128 503.532 227.073 495.169 227.833C462.361 230.67 427.492 216.891 393.396 205.735C359.3 194.58 323.682 185.782 293.009 197.528C273.663 204.957 260.327 225.951 248.804 246.101C233.121 273.631 219.964 304.041 209.526 336.881C200.467 365.049 192.034 396.364 191.932 430.283C191.905 441.946 192.947 454.678 197.328 466.598C200.861 476.191 210.753 472.719 207.209 463.096C206.795 461.929 206.371 460.732 205.958 459.565L205.482 457.848C205.482 457.848 205.662 458.794 205.281 457.279C204.691 454.544 204.203 451.805 203.819 449.074C203.131 443.073 202.923 437.161 203.198 431.443C203.738 416.683 205.528 402.494 208.536 389.134C215.802 355.561 226.039 324.206 239.063 295.629C250.404 269.885 263.714 243.983 280.294 225.611C283.333 222.212 286.612 219.193 290.105 216.577C290.89 216.029 291.655 215.488 292.461 215.001L292.757 214.896L293.978 214.261C296.888 212.994 300.011 211.887 303.113 210.787C318.047 206.522 334.066 205.942 350.532 209.071C383.63 214.585 417.177 230.281 450.389 238.315C467.431 242.817 484.253 244.359 500.444 242.905C516.127 241.086 530.139 234.301 545.339 230.867C573.499 224.614 602.951 223.056 633.141 226.223C662.975 229.093 693.436 237.268 723.78 250.549C752.704 263.026 781.132 281.849 807.838 306.206C847.729 342.723 880.143 394.974 899.062 453.26C906.141 475.606 911.667 498.307 915.554 521.008C916.636 526.822 918.675 532.7 920.085 538.499C921.495 544.298 922.704 550.033 923.795 555.81C925.922 567.168 927.443 578.507 928.342 589.731C930.077 611.162 929.149 631.884 925.596 651.027C918.606 687.791 901.076 716.537 874.079 726.542C867.011 729.159 859.525 730.546 851.765 730.678C842.519 730.89 832.841 728.123 823.701 728.634C801.715 730.059 780.171 733.387 759.185 738.599C716.788 748.775 676.267 764.618 634.861 777.777C614.133 784.382 593.172 790.329 571.686 794.542C550.609 798.303 529.119 800.513 507.297 801.161C476.434 802.77 443.642 797.551 411.306 780.753C384.875 766.842 359.56 745.459 337.265 718.211C314.79 691.013 295.471 659.161 278.276 626.084C260.35 590.85 243.913 554.58 229.078 517.52C221.667 499.433 214.455 481.343 207.209 463.096C203.47 453.677 193.557 457.089 197.328 466.598Z" fill="#FF71D7" fill-opacity="0.37"/>
</g>
<defs>
<filter id="filter0_f_96_63908" x="-148.648" y="-188.178" width="1477.87" height="1502.19" filterUnits="userSpaceOnUse" color-interpolation-filters="sRGB">
<feFlood flood-opacity="0" result="BackgroundImageFix"/>
<feBlend mode="normal" in="SourceGraphic" in2="BackgroundImageFix" result="shape"/>
<feGaussianBlur stdDeviation="95.6667" result="effect1_foregroundBlur_96_63908"/>
</filter>
</defs>
</svg>
