<svg width="33" height="35" viewBox="0 0 33 35" fill="none" xmlns="http://www.w3.org/2000/svg">
<path d="M0 17.7835C0.177047 15.8402 1.13038 15.3078 2.45142 15.1215C3.73161 14.9485 5.07989 14.9085 6.29198 14.5092C10.1734 13.2181 12.6384 10.5561 13.7824 6.69617C14.2591 5.05903 14.8175 3.44854 15.3622 1.82471C15.6755 0.91962 16.0023 -0.331526 17.2008 0.0810872C17.8001 0.280739 18.0997 1.54516 18.3857 2.37039C18.5627 2.84955 18.4674 3.42189 18.481 3.95429C18.6717 8.55959 21.4091 11.3547 26.1485 11.8205C27.8781 11.9936 29.6214 12.1134 31.3237 12.4328C31.9638 12.5526 33.0397 13.2315 32.9989 13.5509C32.9035 14.2563 32.386 15.2545 31.7868 15.4808C29.7712 16.2661 27.6875 16.905 25.5629 17.3309C22.2807 17.9698 20.3604 19.9796 19.448 22.8945C18.5355 25.8361 17.9499 28.8708 17.2553 31.8789C17.1055 32.4911 17.2281 33.1966 16.9829 33.7556C16.7514 34.2747 16.2339 34.9269 15.7572 34.9935C15.2805 35.06 14.4362 34.6075 14.2183 34.1549C13.7007 33.13 13.4011 31.9853 13.1287 30.8673C12.8563 29.7359 12.8155 28.5514 12.5567 27.42C11.6306 23.3471 8.97493 20.9912 4.83475 20.1527C3.77247 19.9397 2.62847 19.8466 1.68876 19.3807C0.926093 19.0081 0.40857 18.1695 0.013619 17.7702L0 17.7835Z" fill="#B5DD37"/>
</svg>
