<svg width="28" height="28" viewBox="0 0 28 28" fill="none" xmlns="http://www.w3.org/2000/svg">
<path fill-rule="evenodd" clip-rule="evenodd" d="M7.79664 2.37599C4.7546 2.37599 2.28855 4.84204 2.28855 7.88408V20.4003C2.28855 23.4423 4.7546 25.9083 7.79664 25.9083H20.3128C23.3549 25.9083 25.8209 23.4423 25.8209 20.4003V7.88408C25.8209 4.84204 23.3549 2.37599 20.3128 2.37599H7.79664ZM0.788546 7.88408C0.788546 4.01361 3.92617 0.875985 7.79664 0.875985H20.3128C24.1833 0.875985 27.3209 4.01361 27.3209 7.88408V20.4003C27.3209 24.2707 24.1833 27.4083 20.3128 27.4083H7.79664C3.92617 27.4083 0.788546 24.2707 0.788546 20.4003V7.88408ZM14.7333 9.87733C13.8476 9.746 12.9432 9.89727 12.1485 10.3096C11.3538 10.722 10.7094 11.3744 10.3069 12.1741C9.90436 12.9738 9.76425 13.8801 9.90649 14.764C10.0487 15.6479 10.4661 16.4645 11.0991 17.0975C11.7322 17.7306 12.5488 18.1479 13.4327 18.2902C14.3166 18.4324 15.2229 18.2923 16.0226 17.8898C16.8223 17.4873 17.4747 16.8428 17.887 16.0482C18.2994 15.2535 18.4507 14.349 18.3193 13.4634C18.1854 12.5601 17.7644 11.7237 17.1187 11.078C16.4729 10.4322 15.6366 10.0113 14.7333 9.87733ZM11.4576 8.97818C12.5324 8.42053 13.7556 8.21595 14.9533 8.39355C16.175 8.57472 17.306 9.144 18.1793 10.0173C19.0527 10.8906 19.6219 12.0217 19.8031 13.2434C19.9807 14.4411 19.7761 15.6643 19.2185 16.739C18.6608 17.8138 17.7785 18.6853 16.697 19.2296C15.6154 19.774 14.3898 19.9635 13.1944 19.7711C11.999 19.5788 10.8946 19.0144 10.0385 18.1582C9.1823 17.302 8.6179 16.1977 8.42554 15.0023C8.23318 13.8069 8.42266 12.5812 8.96702 11.4997C9.51138 10.4182 10.3829 9.53584 11.4576 8.97818ZM20.9386 6.50828C20.5243 6.50828 20.1886 6.84406 20.1886 7.25828C20.1886 7.67249 20.5243 8.00828 20.9386 8.00828H20.9505C21.3647 8.00828 21.7005 7.67249 21.7005 7.25828C21.7005 6.84406 21.3647 6.50828 20.9505 6.50828H20.9386Z" fill="white"/>
</svg>
