<svg width="562" height="773" viewBox="0 0 562 773" fill="none" xmlns="http://www.w3.org/2000/svg">
<path d="M560.305 40.3461C560.305 40.3461 440.363 -23.388 229.241 212.275C18.1184 447.937 145.4 559.099 221.093 612.493C296.787 665.886 451.585 768.653 451.585 768.653" stroke="#B5DD37" stroke-width="3" stroke-linecap="round" stroke-dasharray="24 24"/>
<path d="M61.9509 362.331C62.9076 366.393 65.8587 369.104 67.8428 372.305C69.3365 374.728 71.0772 377.064 72.2614 379.614C73.151 381.533 73.3992 383.967 71.2511 385.37C68.9642 386.857 67.6623 384.622 66.2582 383.466C62.7062 380.527 59.3016 377.421 55.7411 374.476C52.9467 372.163 51.6153 372.353 50.3294 375.681C48.6805 379.916 46.2708 383.686 43.382 387.223C42.3184 388.522 40.9155 389.887 39.0098 389.283C36.9781 388.64 37.0944 386.593 37.185 385.058C37.4209 380.89 37.5995 376.667 39.8608 372.854C40.6966 371.455 41.7932 370.055 40.3598 367.962C36.5777 367.956 32.7158 368.769 28.8815 369.751C25.9227 370.519 22.9568 370.702 19.9498 370.018C15.973 369.11 15.2487 367.156 17.7791 364.047C19.9647 361.362 22.9344 359.615 26.2601 358.425C29.995 357.1 33.7987 355.935 38.0477 354.548C37.6164 351.405 34.8875 349.59 32.7259 347.546C30.275 345.213 27.4816 343.196 25.0201 340.879C23.0789 339.05 20.9808 336.999 23.0849 334.19C25.2982 331.236 27.883 332.705 30.3608 333.947C33.2361 335.387 36.0636 336.898 38.9781 338.263C41.4559 339.417 42.7749 338.562 42.9115 336.013C43.1345 332.056 43.2992 328.099 43.6558 324.155C43.7942 322.548 44.1479 320.727 46.2606 320.322C48.6627 319.855 48.8061 322.042 49.837 323.243C54.7098 328.933 54.7664 336.327 57.8401 342.691C59.8219 346.789 61.9537 349.21 66.9673 349.559C70.4292 349.796 73.8452 350.871 77.2145 351.787C79.0725 352.286 81.3556 352.802 81.0218 355.346C80.7273 357.552 78.8784 358.406 76.788 358.725C73.8219 359.171 70.8082 359.425 67.8327 359.833C65.8324 360.106 63.921 360.65 61.9254 362.317L61.9509 362.331Z" fill="#B5DD37"/>
<path d="M190.108 470.975C191.277 471.797 191.245 472.545 190.85 473.377C190.461 474.181 189.962 474.976 189.744 475.824C189.055 478.546 189.791 480.956 191.804 483.046C192.661 483.927 193.47 484.846 194.292 485.762C194.747 486.278 195.416 486.929 194.687 487.47C194.326 487.742 193.404 487.448 192.767 487.308C192.393 487.233 192.066 486.966 191.721 486.777C188.713 485.183 185.867 485.731 183.725 488.299C182.941 489.235 182.186 490.198 181.32 491.064C180.994 491.39 180.143 491.761 179.955 491.619C179.543 491.303 179.109 490.634 179.198 490.204C179.483 488.748 179.887 487.307 180.443 485.921C181.314 483.787 180.782 481.934 179.28 480.328C177.762 478.712 176.057 477.25 174.411 475.736C174.08 475.422 173.583 475.232 173.322 474.884C173.081 474.558 172.868 474.017 173.011 473.717C173.154 473.417 173.771 473.096 174.144 473.138C174.998 473.218 175.844 473.468 176.662 473.724C177.489 473.985 178.26 474.4 179.081 474.669C182.036 475.641 184.571 474.977 186.717 472.894C187.266 472.358 187.771 471.731 188.434 471.36C188.968 471.057 189.704 471.069 190.112 470.988L190.108 470.975Z" fill="#B5DD37"/>
</svg>
