<svg width="1203" height="1569" viewBox="0 0 1203 1569" fill="none" xmlns="http://www.w3.org/2000/svg">
<path d="M374.741 66.0088C299.154 118.602 266.566 162.942 224.538 270.376C182.51 377.81 126.355 516.569 250.922 731.028C375.488 945.487 668.353 1034.02 668.353 1034.02C668.353 1034.02 972.908 1086.18 1089.9 1186.46C1206.9 1286.74 1200.44 1299.34 1200.44 1299.34" stroke="white" stroke-width="3" stroke-linecap="round" stroke-dasharray="24 24"/>
<path d="M442.958 32.1108C442.827 30.8567 441.381 31.1925 440.512 30.9357C439.925 30.7679 439.207 30.9456 438.57 31.0641C436.619 31.4196 434.677 31.7948 432.736 32.1996C431.391 32.4761 430.673 32.0614 430.461 30.6592C430.259 29.3558 430.329 28.082 430.38 27.4896C430.461 24.9617 430.481 23.1547 429.986 21.3477C429.601 19.9357 428.57 19.5111 427.427 19.1063C426.113 18.6422 425.85 19.8073 425.203 20.4985C423.686 22.1179 423.464 24.1817 422.857 26.1269C421.927 29.1386 421.644 29.4447 418.479 29.3657C413.292 29.2373 408.155 28.4869 403.008 27.8845C402.058 27.7759 400.956 27.1637 400.278 28.2104C399.56 29.3163 400.39 30.2643 400.986 31.153C401.34 31.6862 401.704 32.328 402.24 32.6341C405.374 34.4411 407.842 37.1763 411.209 38.6772C413.201 39.5659 413.271 40.2867 411.633 41.7086C409.571 43.4959 407.366 45.1251 405.253 46.8532C404.323 47.6036 403.342 48.3442 402.594 49.2427C401.664 50.3684 402.068 51.4151 403.534 51.5138C405.374 51.6422 407.245 51.8199 409.095 51.3953C411.138 50.9214 413.18 50.4375 415.243 50.0722C417.205 49.7167 417.629 50.1117 417.609 52.0471C417.609 52.7975 417.356 53.5381 417.356 54.2885C417.346 56.8657 417.468 59.4232 418.914 61.7338C419.884 63.2939 420.764 63.4618 421.775 61.9609C422.786 60.4501 423.899 59.0183 424.414 57.162C425.051 54.8909 425.678 52.5901 426.922 50.5067C428.014 48.6799 428.257 48.4627 429.682 49.9932C431.705 52.1655 434.273 53.3011 436.962 54.3083C437.701 54.5848 438.499 54.6835 439.146 54.0812C439.844 53.4295 439.5 52.679 439.197 51.9878C437.933 49.1144 436.77 46.1916 435.031 43.5453C434.222 42.311 434.344 41.4124 435.516 40.4941C437.66 38.8253 439.116 36.3962 441.695 35.1916C443.049 34.5596 443.07 33.2068 442.958 32.1108V32.1108Z" fill="white"/>
<path d="M127.614 355.152C128.037 353.849 128.803 353.616 129.782 353.671C130.728 353.729 131.704 353.888 132.636 353.782C135.624 353.435 137.8 351.955 139.209 349.475C139.801 348.422 140.447 347.399 141.085 346.364C141.448 345.789 141.873 344.979 142.672 345.426C143.073 345.645 143.096 346.551 143.176 347.154C143.231 347.506 143.076 347.884 143.004 348.249C142.442 351.423 143.986 353.71 147.324 354.682C148.541 355.038 149.777 355.36 150.952 355.813C151.394 355.983 152.065 356.596 151.987 356.808C151.811 357.277 151.288 357.888 150.822 357.96C149.254 358.219 147.658 358.368 146.066 358.366C143.609 358.351 141.922 359.459 140.824 361.325C139.721 363.21 138.839 365.203 137.882 367.163C137.682 367.56 137.663 368.059 137.402 368.407C137.156 368.73 136.685 369.105 136.332 369.084C135.979 369.064 135.441 368.639 135.353 368.299C135.136 367.528 135.095 366.704 135.069 365.903C135.045 365.092 135.195 364.277 135.181 363.468C135.133 360.557 133.581 358.581 130.731 357.438C130 357.146 129.191 356.924 128.586 356.476C128.094 356.117 127.85 355.472 127.626 355.145L127.614 355.152Z" fill="white"/>
</svg>
