<svg width="475" height="655" viewBox="0 0 475 655" fill="none" xmlns="http://www.w3.org/2000/svg">
<path d="M151.242 651.346C151.242 651.346 260.119 665.848 356.762 431.608C453.406 197.368 325.978 149.473 253.67 130.484C181.362 111.495 35.2412 77.4621 35.2412 77.4621" stroke="#FF71D7" stroke-width="3" stroke-linecap="round" stroke-dasharray="24 24"/>
<path d="M412.333 162.536C412.236 158.38 409.901 155.193 408.618 151.697C407.654 149.052 406.43 146.448 405.796 143.734C405.321 141.692 405.582 139.259 407.98 138.266C410.533 137.216 411.347 139.642 412.485 141.027C415.362 144.546 418.059 148.203 420.943 151.728C423.206 154.498 424.552 154.549 426.503 151.513C428.999 147.652 432.145 144.383 435.712 141.429C437.025 140.344 438.685 139.256 440.43 140.188C442.29 141.183 441.752 143.17 441.345 144.661C440.25 148.709 439.2 152.821 436.19 156.159C435.08 157.382 433.714 158.56 434.687 160.87C438.397 161.552 442.355 161.444 446.322 161.165C449.384 160.941 452.333 161.291 455.142 162.5C458.856 164.102 459.162 166.149 456.035 168.747C453.333 170.991 450.057 172.175 446.547 172.749C442.607 173.381 438.634 173.844 434.176 174.447C433.949 177.607 436.25 179.876 437.948 182.269C439.87 184.996 442.193 187.475 444.128 190.188C445.654 192.33 447.288 194.718 444.641 197.098C441.857 199.601 439.625 197.698 437.451 196.036C434.928 194.109 432.466 192.121 429.889 190.261C427.697 188.685 426.225 189.288 425.563 191.766C424.524 195.609 423.543 199.462 422.375 203.269C421.907 204.821 421.182 206.545 419.025 206.565C416.571 206.594 416.883 204.422 416.121 203.059C412.518 196.605 413.995 189.339 412.297 182.545C411.201 178.169 409.611 175.412 404.764 174.173C401.415 173.323 398.286 171.657 395.17 170.156C393.45 169.334 391.316 168.42 392.171 165.983C392.917 163.871 394.908 163.363 397.026 163.423C400.029 163.516 403.039 163.805 406.043 163.937C408.063 164.027 410.051 163.835 412.355 162.555L412.333 162.536Z" fill="#FF71D7"/>
<path d="M309.083 293.907C308.106 292.892 308.293 292.164 308.853 291.418C309.401 290.698 310.056 290.008 310.445 289.214C311.685 286.666 311.463 284.17 309.92 281.759C309.262 280.741 308.659 279.695 308.041 278.65C307.702 278.062 307.18 277.303 308.008 276.903C308.418 276.7 309.262 277.154 309.858 277.405C310.21 277.545 310.476 277.866 310.775 278.113C313.396 280.214 316.303 280.185 318.937 278.048C319.9 277.27 320.84 276.459 321.87 275.764C322.257 275.503 323.169 275.291 323.324 275.464C323.663 275.848 323.951 276.581 323.774 276.987C323.193 278.365 322.497 279.707 321.665 280.968C320.368 282.906 320.506 284.82 321.647 286.665C322.802 288.522 324.172 290.261 325.473 292.041C325.734 292.408 326.182 292.683 326.366 293.072C326.534 293.435 326.632 294.003 326.429 294.272C326.227 294.541 325.555 294.746 325.197 294.638C324.375 294.407 323.597 294.01 322.847 293.613C322.09 293.209 321.42 292.664 320.67 292.253C317.971 290.772 315.347 290.97 312.809 292.631C312.159 293.058 311.534 293.583 310.806 293.828C310.219 294.03 309.5 293.888 309.082 293.894L309.083 293.907Z" fill="#FF71D7"/>
</svg>
