<svg width="28" height="28" viewBox="0 0 28 28" fill="none" xmlns="http://www.w3.org/2000/svg">
<path d="M15.7644 28H9.0994V27.6552C9.0994 21.7377 9.10182 15.8208 9.09277 9.90331C9.09277 9.59888 9.16873 9.5175 9.47497 9.51991C11.38 9.53437 13.2855 9.52714 15.1905 9.52714C15.2978 9.52714 15.4057 9.52714 15.5528 9.52714V10.7262C15.7439 10.5815 15.8753 10.4802 16.008 10.3814C17.4047 9.34207 18.9962 9.01895 20.6981 9.11721C21.7687 9.1787 22.8086 9.38427 23.7701 9.88041C25.2242 10.6303 26.0658 11.8746 26.5348 13.3986C26.9917 14.8822 27.0743 16.414 27.0755 17.953C27.0791 21.2024 27.0767 24.4523 27.0773 27.7016C27.0773 27.7908 27.0773 27.88 27.0773 27.9952H20.4123C20.4123 27.8625 20.4123 27.7365 20.4123 27.6099C20.4081 24.5011 20.422 21.3916 20.3864 18.2828C20.3786 17.6004 20.2146 16.9162 20.0832 16.2404C20.012 15.8738 19.7546 15.6032 19.4387 15.403C18.6538 14.9063 17.16 15.0829 16.5264 15.7533C16.0279 16.2808 15.9103 16.9602 15.8355 17.6396C15.7783 18.1568 15.7674 18.6807 15.7662 19.2015C15.7602 21.9999 15.7632 24.7977 15.7632 27.5961V27.9994L15.7644 28ZM14.2296 13.1966C14.2296 12.4786 14.2217 11.8083 14.2344 11.1379C14.2386 10.9143 14.1699 10.8443 13.9444 10.8468C12.8913 10.857 11.8381 10.8606 10.7855 10.845C10.507 10.8407 10.4335 10.9221 10.4335 11.1976C10.4413 16.253 10.4389 21.3085 10.4401 26.3639C10.4401 26.4688 10.4516 26.5743 10.4588 26.6966C11.6898 26.6966 12.8822 26.6882 14.0746 26.7027C14.3586 26.7063 14.4484 26.6339 14.4472 26.3392C14.4357 23.7415 14.4291 21.1433 14.449 18.5456C14.4538 17.9277 14.522 17.3014 14.6395 16.6943C14.8155 15.7834 15.2436 14.9889 16.0152 14.4361C16.691 13.952 17.4777 13.7953 18.2951 13.7916C19.9746 13.7838 21.0905 14.6187 21.4673 16.253C21.6349 16.9789 21.7163 17.739 21.7253 18.4854C21.7554 21.083 21.7374 23.6812 21.7374 26.2789C21.7374 26.4061 21.7374 26.5339 21.7374 26.6761H25.7396C25.7396 26.558 25.7396 26.4603 25.7396 26.3627C25.7396 23.3135 25.7535 20.2643 25.7324 17.2152C25.7239 16.0107 25.6118 14.8098 25.232 13.6524C24.889 12.6071 24.3169 11.7118 23.3307 11.1886C21.6114 10.2765 19.7962 10.1782 17.9696 10.8088C16.8947 11.1801 16.0701 11.9066 15.5136 12.9181C15.4527 13.0284 15.3382 13.1731 15.2351 13.1846C14.9198 13.2195 14.5979 13.1972 14.2296 13.1972V13.1966Z" fill="white"/>
<path d="M7.06652 28H0.418397C0.418397 27.8734 0.418397 27.7661 0.418397 27.6582C0.418397 21.7323 0.420205 15.8064 0.413574 9.88043C0.413574 9.61638 0.46783 9.51872 0.757193 9.52053C2.75199 9.53379 4.7474 9.53138 6.74219 9.52234C6.99056 9.52114 7.09003 9.56575 7.08943 9.84727C7.08099 15.8033 7.0834 21.7594 7.0822 27.7155C7.0822 27.8035 7.07255 27.8915 7.06652 28ZM5.74088 26.6762C5.74811 26.5695 5.75896 26.4815 5.75896 26.3934C5.75956 21.3109 5.75776 16.2283 5.76499 11.1464C5.76499 10.8992 5.6818 10.845 5.45392 10.8468C4.34168 10.8564 3.22884 10.8613 2.1166 10.8444C1.82482 10.8402 1.75067 10.9252 1.75128 11.2127C1.75972 16.2549 1.75731 21.2976 1.75731 26.3398C1.75731 26.4471 1.75731 26.5544 1.75731 26.6762H5.74088Z" fill="white"/>
<path d="M3.73956 8.50112C1.6682 8.49268 -0.00769904 6.80714 -0.000464949 4.7406C0.00676914 2.65417 1.69894 0.981888 3.78658 0.998165C5.85372 1.01384 7.53745 2.71867 7.51575 4.77315C7.49405 6.84753 5.80971 8.51016 3.73896 8.50172L3.73956 8.50112ZM3.79984 7.17366C5.13755 7.13689 6.20698 6.03369 6.17624 4.72191C6.14429 3.37275 5.03205 2.29005 3.71424 2.32562C2.36508 2.36179 1.29685 3.48006 1.34206 4.80751C1.38848 6.15366 2.48505 7.20983 3.79984 7.17366Z" fill="white"/>
</svg>
