<svg width="90" height="89" viewBox="0 0 90 89" fill="none" xmlns="http://www.w3.org/2000/svg">
<circle cx="45.4404" cy="44.5" r="44.5" fill="#FFFAE9"/>
<g clip-path="url(#clip0_96_64392)">
<path d="M23.501 21.5H66.499C68.0479 21.5 69.2917 22.7366 69.2917 24.2476V66.6569C69.2917 68.1679 68.0479 69.4045 66.499 69.4045H23.501C21.9521 69.4045 20.7083 68.1679 20.7083 66.6569V24.2476C20.7083 22.7366 21.9521 21.5 23.501 21.5Z" fill="#FFD02F" stroke="white"/>
<path d="M53.9954 27.5201H48.7023L53.4011 34.7044L43.4671 27.5201H38.174L42.8727 36.9333L32.9388 27.5201H27.6458L32.2675 39.6707L27.6458 63.3834H32.9388L42.8727 37.958L38.174 63.3834H43.4671L53.4011 35.7291L48.7023 63.3834H53.9954L64.0063 33.0068L53.9954 27.5201Z" fill="#050038"/>
</g>
<defs>
<clipPath id="clip0_96_64392">
<rect x="20.2083" y="21" width="49.5833" height="49" rx="11" fill="white"/>
</clipPath>
</defs>
</svg>
