<svg width="98" height="41" viewBox="0 0 98 41" fill="none" xmlns="http://www.w3.org/2000/svg">
<path d="M20.3292 25.2862V22.2254L19.0409 19.7481L16.6911 19.0895H15.7833L15.5196 19.516L15.1791 21.1812L14.8387 23.969L14.6484 27.1834L14.308 27.5314H14.1578L13.9308 27.453H11.7346L11.3541 27.0674L11.4676 26.6408L11.808 24.4706V21.2563L11.6578 19.3966L9.53504 17.4994H8.05643L6.95832 18.7005L5.82016 21.3348L5.36623 27.6099H0.289551L0.593283 12.1967L1.12398 11.6542H2.90299L4.56851 11.5381L4.83219 11.8077V15.5646L5.47637 14.7115L7.71265 12.1182L9.11449 11.4221L10.1358 11.5381H10.9703L12.2219 12.0432L14.0009 14.3294L14.4181 15.8001L14.5683 16.0696L15.2492 15.4895L18.2799 13.7083L20.9701 13.1658L23.2064 13.3603L24.1543 13.6708L25.7831 16.0321L25.9733 16.6122V16.7282L26.3905 18.8199L26.504 19.0895L27.0347 24.6651V27.3369L20.2525 28.1115L20.0622 27.917L20.3259 25.2828L20.3292 25.2862Z" fill="#FF71D7"/>
<path d="M34.1574 27.6099L33.5132 27.2994L32.1481 26.8728L31.9211 26.8353L30.0654 24.474L29.6482 23.737L28.9673 21.1027L28.9305 17.9259L29.7249 14.8651L31.6174 12.0363L33.1327 10.8727L35.0252 9.86608L36.6173 9.40201L36.9578 9.13245L39.9116 9.71253L42.4483 11.4153L42.979 12.0738L44.4576 14.6671L45.1385 17.571L44.9483 20.8638L43.8502 23.4981L43.7367 23.6926V23.7711L41.0865 26.5589L37.7922 27.9136L34.7248 27.76L34.3477 27.6065H34.1574V27.6099Z" fill="#FF71D7"/>
<path d="M47.4149 9.21436L47.6418 8.5558H48.2092L50.3687 8.12926L50.786 8.01324H51.5069L51.8106 8.28281L51.5837 8.90385V11.4596L53.099 9.98895L54.2739 9.40886L55.7525 8.94479L58.3659 9.13929L58.7831 9.37133L60.5621 11.9647L60.9426 14.3669V16.0321L60.679 18.7039L56.8906 19.2089L57.1176 15.957L56.7371 15.5305L55.0315 15.336L54.7278 15.5305L52.6818 17.8167L52.1144 20.294V23.5459L52.9488 27.9204V28.7326H48.2126L47.9489 28.463L47.4182 9.21436H47.4149Z" fill="#FF71D7"/>
<path d="M65.5954 34.5027L67.3377 33.9226L72.7181 33.3801L73.893 31.7149L73.5525 29.8177L72.0372 29.3127H65.7856L64.1568 28.7701L63.5494 28.074V27.4939L64.6475 25.1702L66.3531 23.3889L66.9972 22.9624L66.5433 22.8089L64.801 21.7647L64.1568 20.7206L63.2089 18.8233V16.0355L63.3992 15.7659L63.4759 15.4179L64.1969 13.6367L64.9178 12.6676L66.8504 11.0399L68.5927 10.3438L71.5466 9.76375H72.608L74.6907 10.2278L75.8656 7.51848L76.1693 6.70636L79.5404 7.24891L79.8441 7.59696L79.6939 8.09857L77.6479 11.7019L77.5711 11.7804L78.2153 12.5925L79.2 14.4522L79.3502 15.7693V17.7041L78.5558 20.0279L76.5865 22.3892L73.933 23.5903L71.1293 23.9008L69.0466 23.7063L68.2522 24.5594L67.7983 25.4124L67.6481 25.9174V26.692L68.1421 26.9241L73.8629 26.7705L75.3783 27.081L76.2494 27.3131L78.2187 28.7837L78.7861 29.3263L79.7707 31.7661V33.2368L79.5437 34.8235L77.4977 37.5362L76.5498 38.0003L75.2614 38.7749L74.427 39.0444L73.3289 39.1605L69.2369 39.314L66.3197 39.6621L63.556 39.5085L60.7156 38.6964L57.458 36.6456L57.3813 36.4511L56.964 36.1406L56.4333 35.4036L56.5101 35.093L58.3292 31.6091L60.8658 31.7627L61.7737 32.6157L64.0834 33.8953L64.8778 34.2058L65.1048 34.2434L65.5954 34.5129V34.5027ZM72.3777 20.0961L75.0278 18.895L76.2027 16.3767V15.9502L75.445 15.3292L74.5739 14.4386L73.7394 14.285L72.7181 14.0154L70.3683 14.2099L70.1781 14.2884L69.8009 14.3669L68.5493 16.3801V16.7657L69.6874 19.2055L72.3777 20.0961V20.0961Z" fill="#FF71D7"/>
<path d="M84.4602 28.7325L83.7793 28.463L81.6966 27.4188L80.8254 26.7227L79.1966 25.6786L78.9697 25.1735L79.3101 24.6685L80.1045 23.0818L80.3682 22.8498H80.8622L85.5984 25.7536H87.1137L87.6444 25.8696L87.8714 25.7536L88.3654 25.6376L89.617 23.3514V22.8464L88.8226 21.4917L88.5589 20.8331L88.105 20.3691L85.0744 18.8199H84.8107L84.28 18.5503H84.0163L82.8781 17.9702L80.9089 15.6465L80.6452 12.8177L80.8355 11.9271L81.6298 9.71937L84.4335 7.00662L85.9856 6.34805L87.5376 6H90.4181L93.145 6.5016L95.8719 8.78782L96.7063 10.958L97.0101 12.0807V16.8067H96.5928L90.5716 15.6055L91.2158 13.6298L90.6851 12.3912L90.3446 11.1525L89.9274 10.883L88.2986 10.7294L87.4642 10.5759L84.9275 12.5891L84.5103 14.6808L84.774 15.3019L87.5777 16.735L90.2679 17.3936L91.2158 17.8201L91.5929 18.0897L92.3139 18.2842L93.185 18.9427H93.2985L95.7617 21.4985L95.952 22.9317V24.6754L94.5502 27.3472L94.0962 27.5417L91.86 28.8588L90.6851 29.2069L89.2065 29.4014L88.5623 29.5549L85.7953 29.4014L84.4702 28.7428L84.4602 28.7325Z" fill="#FF71D7"/>
<path d="M34.8192 22.2712C34.8192 21.7935 34.8058 21.3124 34.8225 20.8347C34.8392 20.4013 34.679 20.1829 34.2417 20.1078C33.7211 20.0225 33.2004 19.9543 32.673 19.9099C32.2658 19.8758 31.8586 19.8076 31.4648 19.712C31.2411 19.6574 31.0142 19.5243 31.0008 19.2377C30.9841 18.934 31.2278 18.8658 31.4414 18.7566C32.4327 18.2447 33.4106 17.7022 34.4086 17.2074C35.0161 16.9071 35.2698 16.4601 35.223 15.7708C35.193 15.2999 35.173 14.8256 35.3966 14.3684C35.6803 13.7849 36.0441 13.6689 36.5815 14.034C36.8118 14.191 36.9453 14.4196 37.0955 14.638C37.7263 15.5798 38.5674 15.9551 39.6722 15.6582C39.9826 15.5729 40.303 15.5354 40.6201 15.4671C40.9105 15.4023 41.2142 15.3034 41.4279 15.6002C41.6315 15.8869 41.3745 16.1018 41.251 16.3202C41.0073 16.7638 40.7536 17.2006 40.4966 17.6374C40.0193 18.4461 39.996 18.603 40.6168 19.2821C41.044 19.753 41.3177 20.3092 41.6582 20.8278C41.785 21.0223 41.9485 21.2339 41.785 21.483C41.5914 21.7798 41.261 22.0016 40.9639 21.8856C40.0627 21.5273 39.1182 21.6434 38.2036 21.4966C37.6996 21.4147 37.4126 21.5478 37.1522 21.8925C36.7384 22.435 36.3512 22.998 35.9573 23.5542C35.8539 23.6975 35.7771 23.8647 35.6569 23.9944C35.4633 24.206 35.2063 24.2913 34.9393 24.165C34.7023 24.0524 34.7791 23.8238 34.7858 23.6122C34.8025 23.1652 34.7891 22.7148 34.7891 22.2644H34.8192V22.2712Z" fill="white"/>
<path d="M89.4101 34.8463C89.0096 34.7849 88.5924 34.8259 88.1852 34.8156C87.1839 34.7883 87.304 34.6621 87.5076 33.7988C87.6011 33.3961 87.8013 33.0208 87.9415 32.625C87.9916 32.485 88.015 32.3247 87.8915 32.2052C87.7379 32.0517 87.571 32.1165 87.4075 32.195C86.9302 32.4236 86.6632 32.857 86.4062 33.2938C86.246 33.5667 86.1692 33.8977 85.8054 34.1025C85.6085 33.6555 85.5717 33.2119 85.4583 32.7887C85.3715 32.4782 85.4149 31.9493 84.9209 32.0039C84.5304 32.0449 84.4536 32.4816 84.3768 32.8331C84.3501 32.9491 84.3702 33.072 84.3635 33.1914C84.3346 33.7487 84.0742 33.9455 83.5825 33.7817C83.4723 33.7442 83.3688 33.6759 83.2554 33.6623C82.9783 33.6282 82.718 33.693 82.5578 33.9421C82.4143 34.1673 82.6145 34.3277 82.718 34.4983C82.7948 34.6245 82.8882 34.7406 82.9683 34.8668C83.1986 35.2319 83.1486 35.3821 82.7146 35.4503C82.3108 35.5151 81.8969 35.5186 81.4897 35.5493C81.3128 35.5629 81.1192 35.5561 81.0391 35.7506C80.949 35.9656 81.0224 36.1703 81.1793 36.3239C81.3262 36.4672 81.4964 36.5866 81.6699 36.6924C82.0471 36.921 82.4209 37.1633 82.8215 37.3407C83.2654 37.5386 83.3522 37.815 83.2086 38.2688C83.0384 38.808 82.8949 39.3642 82.9216 39.9409C82.9416 40.3708 83.1219 40.4629 83.4857 40.2582C83.6993 40.1388 83.8395 39.9477 83.9696 39.7464C84.2233 39.3437 84.4703 38.9376 84.7273 38.5384C85.0477 38.0436 85.1278 38.0334 85.4716 38.4804C85.8187 38.9308 86.2159 39.3267 86.6732 39.6508C87.0403 39.9136 87.2306 39.7975 87.3207 39.3369C87.4208 38.808 87.3207 38.2791 87.2773 37.7468C87.4008 37.757 87.4609 37.7468 87.511 37.7672C87.768 37.8696 88.0016 38.204 88.2953 37.9379C88.6057 37.658 88.322 37.3271 88.2786 37.0165C88.2753 36.9892 88.2553 36.9619 88.2453 36.9346C88.1028 36.5502 88.2219 36.2829 88.6024 36.1328C88.9795 35.986 89.3968 35.9383 89.6538 35.5424C89.9041 35.1603 89.854 34.9146 89.4101 34.8463V34.8463Z" fill="#8167E4"/>
<path d="M59 5.00814C59.0467 4.46218 59.3037 4.30862 59.6575 4.26085C60.0046 4.21308 60.3651 4.20284 60.6922 4.08683C61.7369 3.72513 62.4011 2.97101 62.7082 1.88591C62.8384 1.42526 62.9852 0.971424 63.1354 0.51418C63.2189 0.25826 63.309 -0.0932045 63.6294 0.0228127C63.793 0.0808213 63.8697 0.435697 63.9498 0.667732C63.9966 0.804222 63.9699 0.9646 63.9765 1.11474C64.0299 2.4114 64.7642 3.19964 66.0393 3.3293C66.5065 3.37707 66.9738 3.4112 67.4311 3.50333C67.6046 3.53745 67.8917 3.72854 67.8817 3.81726C67.8583 4.01517 67.7181 4.29498 67.5546 4.36322C67.0139 4.58161 66.4498 4.76587 65.879 4.88189C64.9979 5.06274 64.4772 5.62917 64.2335 6.44812C63.9866 7.2773 63.8297 8.13378 63.6428 8.97661C63.6027 9.15064 63.6361 9.34855 63.5693 9.50551C63.5059 9.64883 63.3657 9.8365 63.2389 9.85356C63.1087 9.87063 62.8851 9.74437 62.825 9.61812C62.6848 9.33149 62.6047 9.00732 62.5313 8.69339C62.4612 8.37264 62.4479 8.04165 62.3778 7.7209C62.1274 6.57437 61.4132 5.90898 60.2984 5.67353C60.0113 5.61211 59.7043 5.58823 59.4506 5.45856C59.247 5.35278 59.1068 5.11733 59 5.00473V5.00814Z" fill="#B5DD37"/>
</svg>
