<svg width="189" height="79" viewBox="0 0 189 79" fill="none" xmlns="http://www.w3.org/2000/svg">
<path d="M39.5822 49.9138V43.9758L37.0882 39.1698L32.5396 37.8922H30.7822L30.2718 38.7197L29.6127 41.9502L28.9537 47.3585L28.5854 53.5944L27.9264 54.2696H27.6357L27.1963 54.1174H22.9449L22.2083 53.3693L22.428 52.5418L23.087 48.3316V42.0958L22.7963 38.488L18.687 34.8074H15.8248L13.6991 37.1376L11.4958 42.2481L10.6171 54.4219H0.789795L1.37775 24.5202L2.40507 23.4677H5.84883L9.07292 23.2426L9.58335 23.7656V31.054L10.8303 29.399L15.1593 24.368L17.8729 23.0175L19.85 23.2426H21.4653L23.8882 24.2223L27.332 28.6576L28.1396 31.5107L28.4304 32.0337L29.7484 30.9083L35.6151 27.4528L40.8227 26.4002L45.1517 26.7776L46.9866 27.38L50.1396 31.9609L50.5079 33.0862V33.3113L51.3156 37.3693L51.5352 37.8922L52.5626 48.709V53.8923L39.4336 55.395L39.0653 55.0177L39.5758 49.9072L39.5822 49.9138Z" fill="#FF71D7"/>
<path d="M66.3505 54.4219L65.1035 53.8195L62.4609 52.992L62.0216 52.9192L58.4292 48.3383L57.6216 46.9084L56.3035 41.7979L56.2324 35.6349L57.7702 29.6969L61.4336 24.2091L64.3669 21.9517L68.0304 19.9989L71.1123 19.0986L71.7714 18.5756L77.4894 19.701L82.3999 23.0043L83.4272 24.2819L86.2894 29.3129L87.6075 34.9464L87.2392 41.3345L85.1135 46.445L84.8938 46.8223V46.9746L79.7637 52.383L73.3866 55.011L67.4489 54.7131L66.7188 54.4152H66.3505V54.4219Z" fill="#FF71D7"/>
<path d="M92.0139 18.7345L92.4533 17.4569H93.5517L97.732 16.6294L98.5396 16.4044H99.9352L100.523 16.9273L100.084 18.1321V23.0904L103.017 20.2372L105.291 19.1119L108.154 18.2116L113.213 18.5889L114.02 19.039L117.464 24.0701L118.201 28.7304V31.9609L117.69 37.1442L110.357 38.1239L110.796 31.8153L110.06 30.9878L106.758 30.6105L106.17 30.9878L102.21 35.4231L101.111 40.229V46.5377L102.726 55.0243V56.5998H93.5581L93.0477 56.0769L92.0204 18.7345H92.0139Z" fill="#FF71D7"/>
<path d="M127.208 67.7939L130.58 66.6685L140.996 65.616L143.27 62.3855L142.611 58.7049L139.678 57.7252H127.576L124.423 56.6726L123.247 55.3222V54.1968L125.373 49.6887L128.674 46.2332L129.921 45.4057L129.043 45.1078L125.67 43.0822L124.423 41.0565L122.588 37.3759V31.9675L122.956 31.4445L123.105 30.7693L124.5 27.3138L125.896 25.4338L129.637 22.2761L133.01 20.9257L138.728 19.8003H140.782L144.814 20.7006L147.088 15.4445L147.676 13.869L154.202 14.9215L154.79 15.5967L154.499 16.5698L150.539 23.5604L150.39 23.7126L151.637 25.2881L153.543 28.8959L153.834 31.4512V35.2046L152.296 39.7127L148.484 44.2936L143.347 46.6237L137.92 47.2262L133.888 46.8488L132.351 48.5038L131.472 50.1587L131.181 51.1385V52.6412L132.137 53.0913L143.212 52.7934L146.145 53.3958L147.831 53.846L151.643 56.6991L152.742 57.7516L154.648 62.4848V65.3379L154.209 68.4161L150.248 73.6789L148.413 74.5792L145.919 76.0819L144.304 76.6048L142.178 76.8299L134.257 77.1278L128.61 77.803L123.26 77.5051L117.762 75.9296L111.455 71.9511L111.307 71.5738L110.499 70.9714L109.472 69.5415L109.621 68.9391L113.142 62.1803L118.052 62.4782L119.81 64.1331L124.281 66.6156L125.818 67.218L126.258 67.2908L127.208 67.8137V67.7939ZM140.337 39.8451L145.467 37.5149L147.741 32.6295V31.802L146.274 30.5972L144.588 28.8694L142.973 28.5715L140.996 28.0486L136.447 28.4259L136.079 28.5782L135.349 28.7304L132.926 32.6361V33.3841L135.129 38.1173L140.337 39.8451Z" fill="#FF71D7"/>
<path d="M163.726 56.5998L162.408 56.0768L158.376 54.0512L156.69 52.7007L153.537 50.6751L153.097 49.6953L153.756 48.7156L155.294 45.6374L155.804 45.1872H156.761L165.929 50.8207H168.862L169.89 51.0458L170.329 50.8207L171.285 50.5956L173.708 46.1604V45.1806L172.17 42.5526L171.66 41.2749L170.781 40.3747L164.915 37.3693H164.404L163.377 36.8463H162.866L160.663 35.7209L156.851 31.2128L156.341 25.725L156.709 23.9973L158.247 19.7142L163.674 14.4515L166.678 13.1739L169.683 12.4987H175.259L180.537 13.4718L185.816 17.907L187.431 22.1172L188.019 24.2951V33.4636H187.212L175.556 31.1334L176.803 27.3005L175.776 24.8976L175.117 22.4946L174.309 21.9716L171.156 21.6737L169.541 21.3758L164.63 25.2815L163.823 29.3394L164.333 30.5442L169.76 33.3246L174.968 34.6022L176.803 35.4297L177.533 35.9526L178.929 36.33L180.615 37.6076H180.835L185.603 42.5658L185.971 45.3461V48.7288L183.258 53.9122L182.379 54.2895L178.05 56.8447L175.776 57.52L172.913 57.8973L171.666 58.1952L166.31 57.8973L163.745 56.6197L163.726 56.5998Z" fill="#FF71D7"/>
<path d="M67.6316 44.0648C67.6316 43.138 67.6057 42.2046 67.638 41.2779C67.6704 40.4371 67.3602 40.0135 66.5138 39.8678C65.5059 39.7023 64.498 39.57 63.4771 39.4839C62.6888 39.4177 61.9006 39.2853 61.1382 39.0999C60.7053 38.994 60.2659 38.7359 60.2401 38.1798C60.2078 37.5906 60.6795 37.4582 61.093 37.2464C63.0119 36.2534 64.905 35.2009 66.8369 34.241C68.0128 33.6585 68.5038 32.7913 68.4134 31.4541C68.3552 30.5405 68.3165 29.6204 68.7494 28.7333C69.2986 27.6013 70.0028 27.3763 71.0431 28.0846C71.4889 28.3891 71.7473 28.8326 72.0381 29.2563C73.2592 31.0834 74.8874 31.8115 77.026 31.2356C77.6269 31.0701 78.2472 30.9973 78.861 30.8649C79.4231 30.7391 80.0111 30.5472 80.4246 31.1231C80.8187 31.6791 80.3212 32.0962 80.0821 32.5199C79.6105 33.3804 79.1194 34.2278 78.6219 35.0751C77.698 36.644 77.6528 36.9485 78.8545 38.2659C79.6815 39.1794 80.2113 40.2584 80.8704 41.2646C81.1159 41.642 81.4325 42.0524 81.1159 42.5356C80.7412 43.1115 80.1015 43.5418 79.5265 43.3168C77.782 42.6217 75.9535 42.8468 74.1831 42.5621C73.2075 42.4032 72.6519 42.6614 72.1479 43.33C71.3467 44.3825 70.5972 45.4748 69.8348 46.5538C69.6345 46.8319 69.4859 47.1562 69.2533 47.4078C68.8786 47.8182 68.3811 47.9837 67.8642 47.7388C67.4055 47.5203 67.5541 47.0768 67.567 46.6664C67.5993 45.7992 67.5734 44.9254 67.5734 44.0516H67.6316V44.0648Z" fill="#00425B"/>
<path d="M173.308 68.1219C172.532 68.0027 171.725 68.0821 170.936 68.0623C168.998 68.0093 169.231 67.7644 169.625 66.0896C169.806 65.3085 170.193 64.5803 170.465 63.8124C170.562 63.541 170.607 63.2298 170.368 62.9981C170.071 62.7003 169.748 62.826 169.431 62.9783C168.507 63.4218 167.99 64.2625 167.493 65.1099C167.183 65.6394 167.034 66.2816 166.33 66.6788C165.949 65.8116 165.877 64.951 165.658 64.1301C165.49 63.5277 165.574 62.5017 164.618 62.6076C163.862 62.687 163.713 63.5343 163.564 64.2162C163.513 64.4413 163.551 64.6796 163.539 64.9113C163.483 65.9925 162.979 66.3742 162.027 66.0565C161.813 65.9837 161.613 65.8513 161.393 65.8248C160.857 65.7586 160.353 65.8844 160.043 66.3676C159.765 66.8045 160.153 67.1157 160.353 67.4467C160.502 67.6916 160.683 67.9167 160.838 68.1616C161.284 68.8699 161.187 69.1612 160.347 69.2936C159.565 69.4193 158.764 69.426 157.976 69.4856C157.633 69.512 157.258 69.4988 157.103 69.8761C156.929 70.2932 157.071 70.6904 157.375 70.9883C157.659 71.2663 157.988 71.498 158.324 71.7032C159.055 72.1467 159.778 72.6167 160.554 72.961C161.413 73.3449 161.581 73.8811 161.303 74.7615C160.974 75.8075 160.696 76.8865 160.747 78.0052C160.786 78.8393 161.135 79.0181 161.839 78.6209C162.253 78.3892 162.524 78.0185 162.776 77.6279C163.267 76.8468 163.745 76.059 164.243 75.2845C164.863 74.3246 165.018 74.3048 165.684 75.172C166.356 76.0458 167.124 76.8137 168.01 77.4426C168.72 77.9523 169.089 77.7272 169.263 76.8335C169.457 75.8075 169.263 74.7814 169.179 73.7487C169.418 73.7686 169.534 73.7487 169.631 73.7884C170.129 73.987 170.581 74.6358 171.15 74.1194C171.751 73.5766 171.201 72.9345 171.117 72.3321C171.111 72.2791 171.072 72.2262 171.053 72.1732C170.777 71.4274 171.008 70.9088 171.744 70.6175C172.474 70.3329 173.282 70.2402 173.779 69.4723C174.264 68.7309 174.167 68.2543 173.308 68.1219Z" fill="#8167E4"/>
<path d="M114.44 10.2358C114.531 9.17664 115.028 8.87875 115.713 8.78607C116.385 8.6934 117.083 8.67354 117.716 8.44846C119.739 7.74676 121.024 6.28379 121.619 4.17869C121.871 3.28502 122.155 2.40458 122.446 1.51753C122.607 1.02104 122.782 0.339203 123.402 0.564276C123.719 0.676813 123.867 1.36527 124.022 1.81542C124.113 2.08021 124.061 2.39134 124.074 2.68261C124.177 5.19814 125.599 6.72731 128.067 6.97887C128.971 7.07154 129.876 7.13774 130.761 7.31648C131.097 7.38268 131.653 7.75338 131.633 7.9255C131.588 8.30945 131.317 8.85227 131 8.98467C129.954 9.40833 128.862 9.76581 127.757 9.99088C126.051 10.3417 125.043 11.4406 124.571 13.0294C124.093 14.638 123.79 16.2996 123.428 17.9346C123.35 18.2723 123.415 18.6562 123.286 18.9607C123.163 19.2387 122.892 19.6028 122.646 19.6359C122.394 19.669 121.961 19.4241 121.845 19.1792C121.573 18.6231 121.418 17.9942 121.276 17.3852C121.141 16.7629 121.115 16.1208 120.979 15.4986C120.494 13.2743 119.112 11.9834 116.954 11.5267C116.398 11.4075 115.804 11.3612 115.313 11.1096C114.919 10.9044 114.647 10.4476 114.44 10.2292V10.2358Z" fill="#B5DD37"/>
</svg>
