<svg width="46" height="44" viewBox="0 0 46 44" fill="none" xmlns="http://www.w3.org/2000/svg">
<path d="M45.5831 12.9662C45.4436 11.726 43.9094 12.058 42.9867 11.8041C42.3644 11.6381 41.6026 11.8139 40.9267 11.9311C38.8559 12.2826 36.7959 12.6537 34.7359 13.0541C33.309 13.3275 32.5472 12.9174 32.3219 11.5307C32.1073 10.2416 32.1824 8.98189 32.236 8.39597C32.3219 5.89601 32.3433 4.10893 31.8176 2.32185C31.4099 0.925387 30.3155 0.505472 29.1031 0.105088C27.7083 -0.353889 27.4294 0.798436 26.7427 1.48202C25.1333 3.08355 24.8973 5.12454 24.2535 7.04833C23.2665 10.0268 22.966 10.3295 19.6078 10.2514C14.1037 10.1245 8.65333 9.38228 3.19218 8.78659C2.18364 8.67917 1.01416 8.07371 0.295305 9.10885C-0.466466 10.2026 0.413326 11.1401 1.04635 12.019C1.42187 12.5463 1.80812 13.181 2.37676 13.4838C5.70281 15.2709 8.32072 17.9759 11.8935 19.4602C14.0072 20.3391 14.0823 21.052 12.3442 22.4582C10.1554 24.2258 7.81645 25.8371 5.57406 27.546C4.58697 28.2882 3.54624 29.0206 2.75228 29.9093C1.7652 31.0225 2.19437 32.0577 3.7501 32.1553C5.70281 32.2823 7.6877 32.4581 9.65114 32.0382C11.8184 31.5694 13.9857 31.0909 16.1745 30.7296C18.2559 30.378 18.7066 30.7686 18.6851 32.6827C18.6851 33.4249 18.4169 34.1573 18.4169 34.8994C18.4061 37.4482 18.5349 39.9775 20.0692 42.2626C21.0992 43.8055 22.0326 43.9716 23.1055 42.4872C24.1784 40.9931 25.3586 39.5771 25.9058 37.7412C26.5818 35.4951 27.247 33.2198 28.5667 31.1593C29.7254 29.3527 29.9829 29.1378 31.4957 30.6515C33.6416 32.7999 36.3668 33.9229 39.2207 34.919C40.004 35.1924 40.8516 35.2901 41.5382 34.6944C42.2785 34.0498 41.9137 33.3077 41.5919 32.6241C40.2507 29.7823 39.0169 26.8918 37.1715 24.2746C36.3131 23.0539 36.4419 22.1653 37.6865 21.2571C39.961 19.6067 41.506 17.2044 44.242 16.013C45.6797 15.388 45.7011 14.0502 45.5831 12.9662Z" fill="#FF71D7"/>
</svg>
