<svg width="43" height="45" viewBox="0 0 43 45" fill="none" xmlns="http://www.w3.org/2000/svg">
<path d="M34.7454 12.2886C37.9655 12.8286 41.6455 11.8369 42.3755 14.6256C43.2055 17.817 39.8354 19.1427 37.1754 20.0756C34.4054 21.0477 34.5654 22.6287 35.8755 24.6122C36.4254 25.4371 36.9655 26.2816 37.5854 27.0573C38.9655 28.8249 39.4155 30.6022 37.7355 32.409C36.0354 34.2355 34.0955 35.7379 31.3855 34.7559C29.0155 33.9016 26.7955 31.4074 24.1755 33.3517C22.2355 34.7952 22.2355 37.6135 21.1055 39.705C20.8255 40.2255 20.6755 40.8147 20.4455 41.3646C19.8155 42.867 19.0855 44.4381 17.1255 44.3203C15.1455 44.2025 14.7155 42.4938 14.2455 40.962C14.1855 40.7754 14.1755 40.5692 14.1555 40.3728C13.4055 33.5088 13.7455 31.8002 4.01545 33.3714C2.59545 33.5972 0.995452 33.7838 0.275452 32.2617C-0.534548 30.5728 0.585452 29.1195 1.77545 28.108C3.61545 26.5565 5.88545 25.6826 8.10545 24.7006C13.3055 22.393 14.2855 20.4389 13.2355 14.9301C12.6055 11.611 12.4455 8.2625 12.2255 4.90418C11.9155 0.681726 15.9055 0.161284 18.4255 1.78153C19.8455 2.69476 20.4655 4.2168 21.4755 5.43444C23.8555 8.3116 24.3255 8.33124 27.2055 5.9647C29.5155 4.05969 31.8255 2.15467 34.2055 0.328218C34.6055 0.0238087 35.4155 -0.0940271 35.8855 0.0827267C36.7755 0.406775 36.9255 1.32982 36.5655 2.05648C35.0155 5.22823 35.9354 8.71421 34.7454 12.2984V12.2886Z" fill="white"/>
</svg>
