<svg width="43" height="44" viewBox="0 0 43 44" fill="none" xmlns="http://www.w3.org/2000/svg">
<path d="M42.4852 12.9662C42.3552 11.726 40.9252 12.058 40.0652 11.8041C39.4852 11.6381 38.7752 11.8139 38.1452 11.9311C36.2152 12.2826 34.2952 12.6537 32.3752 13.0541C31.0452 13.3275 30.3352 12.9174 30.1252 11.5307C29.9252 10.2416 29.9952 8.98189 30.0452 8.39597C30.1252 5.89601 30.1452 4.10893 29.6552 2.32185C29.2752 0.925387 28.2552 0.505472 27.1252 0.105088C25.8252 -0.353889 25.5652 0.798435 24.9252 1.48202C23.4252 3.08355 23.2052 5.12454 22.6052 7.04833C21.6852 10.0268 21.4052 10.3295 18.2752 10.2514C13.1452 10.1245 8.06524 9.38228 2.97524 8.78659C2.03524 8.67917 0.945235 8.07371 0.275235 9.10885C-0.434765 10.2026 0.385236 11.1401 0.975236 12.019C1.32524 12.5463 1.68524 13.181 2.21524 13.4838C5.31524 15.2709 7.75524 17.9759 11.0852 19.4602C13.0552 20.3391 13.1252 21.052 11.5052 22.4582C9.46523 24.2258 7.28524 25.8371 5.19524 27.546C4.27524 28.2882 3.30524 29.0206 2.56524 29.9093C1.64524 31.0225 2.04524 32.0577 3.49524 32.1553C5.31524 32.2823 7.16524 32.4581 8.99524 32.0382C11.0152 31.5694 13.0352 31.0909 15.0752 30.7296C17.0152 30.378 17.4352 30.7686 17.4152 32.6827C17.4152 33.4249 17.1652 34.1573 17.1652 34.8994C17.1552 37.4482 17.2752 39.9775 18.7052 42.2626C19.6652 43.8055 20.5352 43.9715 21.5352 42.4872C22.5352 40.9931 23.6352 39.5771 24.1452 37.7412C24.7752 35.4951 25.3952 33.2198 26.6252 31.1593C27.7052 29.3527 27.9452 29.1378 29.3552 30.6515C31.3552 32.7999 33.8952 33.9229 36.5552 34.919C37.2852 35.1924 38.0752 35.2901 38.7152 34.6944C39.4052 34.0498 39.0652 33.3077 38.7652 32.6241C37.5152 29.7823 36.3652 26.8918 34.6452 24.2746C33.8452 23.0539 33.9652 22.1653 35.1252 21.2571C37.2452 19.6067 38.6852 17.2044 41.2352 16.013C42.5752 15.388 42.5952 14.0502 42.4852 12.9662Z" fill="white"/>
</svg>
