<svg width="27" height="29" viewBox="0 0 27 29" fill="none" xmlns="http://www.w3.org/2000/svg">
<path d="M0.0099982 14.3695C0.149998 12.7983 0.919999 12.3663 1.98 12.219C3.01 12.0815 4.09 12.052 5.07 11.728C8.19 10.6871 10.18 8.52679 11.09 5.41396C11.48 4.0883 11.92 2.78229 12.36 1.47628C12.61 0.749621 12.88 -0.261807 13.84 0.062242C14.33 0.229176 14.56 1.25042 14.8 1.91816C14.94 2.31094 14.86 2.77247 14.88 3.20453C15.04 6.92618 17.24 9.18471 21.04 9.55785C22.43 9.69533 23.83 9.79353 25.2 10.0488C25.72 10.147 26.58 10.6969 26.55 10.9522C26.48 11.5218 26.06 12.327 25.57 12.5136C23.95 13.142 22.27 13.6723 20.56 14.0062C17.92 14.5266 16.37 16.1468 15.64 18.5036C14.9 20.8799 14.44 23.3348 13.88 25.7603C13.76 26.2611 13.86 26.8306 13.66 27.2823C13.48 27.6948 13.05 28.2348 12.68 28.2839C12.29 28.333 11.62 27.9697 11.44 27.6064C11.02 26.7815 10.78 25.8585 10.57 24.9453C10.36 24.032 10.32 23.0697 10.11 22.1565C9.36 18.8669 7.23 16.9521 3.89 16.2843C3.03 16.1076 2.12 16.0388 1.35 15.6657C0.739998 15.3711 0.32 14.6837 -1.19693e-07 14.3695L0.0099982 14.3695Z" fill="#51FFF6"/>
</svg>
