<svg width="25" height="24" viewBox="0 0 25 24" fill="none" xmlns="http://www.w3.org/2000/svg">
<path d="M0.614479 9.98504C1.0369 8.68152 1.8033 8.44911 2.78158 8.50386C3.72845 8.56207 4.70409 8.72062 5.63635 8.61483C8.62359 8.26757 10.8005 6.78826 12.2093 4.30829C12.8007 3.25527 13.4468 2.23169 14.0851 1.19715C14.4478 0.621837 14.8729 -0.188074 15.6721 0.25907C16.0727 0.478095 16.0961 1.38345 16.1764 1.98678C16.231 2.33862 16.0755 2.71658 16.0045 3.08227C15.4422 6.25554 16.9863 8.54286 20.3237 9.51445C21.5412 9.87109 22.7766 10.1932 23.9523 10.6462C24.3944 10.8162 25.065 11.4284 24.9871 11.641C24.8114 12.11 24.2877 12.7208 23.8224 12.7928C22.2537 13.0516 20.6583 13.201 19.0658 13.1992C16.6085 13.1834 14.9224 14.2921 13.8236 16.1582C12.7207 18.0425 11.8387 20.0355 10.8825 21.9954C10.6817 22.3931 10.6628 22.892 10.4016 23.2403C10.1563 23.5631 9.68507 23.9374 9.33219 23.9172C8.9793 23.897 8.44083 23.4713 8.35285 23.1321C8.13633 22.3604 8.0947 21.5369 8.06861 20.7353C8.04455 19.9247 8.19506 19.1096 8.18079 18.3008C8.13333 15.39 6.58134 13.4141 3.73143 12.2704C2.99987 11.9785 2.19135 11.7571 1.58633 11.3092C1.09449 10.9495 0.849669 10.3051 0.626293 9.97782L0.614479 9.98504Z" fill="white"/>
</svg>
